# This file uses centimeters as units for non-parametric coordinates.

mtllib cookie.mtl
g default
v -0.066583 -0.014313 -0.038689
v -0.055029 -0.014313 -0.044016
v -0.056220 -0.014313 -0.028801
v -0.072075 -0.014313 -0.026969
v -0.068642 -0.014313 0.053296
v -0.072075 -0.014313 0.039578
v -0.056220 -0.014313 0.041410
v -0.055029 -0.014313 0.056625
v 0.069162 -0.014313 0.050314
v 0.058564 -0.014313 0.056625
v 0.059501 -0.014313 0.040984
v 0.075611 -0.014313 0.039578
v 0.072178 -0.014313 -0.040687
v 0.075611 -0.014313 -0.026969
v 0.059827 -0.014313 -0.028893
v 0.058564 -0.014313 -0.044016
v 0.001768 -0.014313 -0.031231
v 0.001768 -0.014313 -0.044016
v 0.001768 -0.014313 0.043840
v 0.001768 -0.014313 0.056625
v 0.075611 -0.003042 0.080015
v 0.080656 -0.014313 0.068745
v 0.067087 -0.003042 0.070472
v 0.053519 -0.014313 0.068745
v 0.058564 -0.003042 0.080015
v -0.055029 -0.003042 0.080015
v -0.049983 -0.014313 0.068745
v -0.063552 -0.003042 0.070472
v -0.077120 -0.014313 0.068745
v -0.072075 -0.003042 0.080015
v -0.072075 -0.003042 -0.067406
v -0.077120 -0.014313 -0.056136
v -0.063552 -0.003042 -0.057863
v -0.049983 -0.014313 -0.056136
v -0.055029 -0.003042 -0.067406
v 0.058564 -0.003042 -0.067406
v 0.053519 -0.014313 -0.056136
v 0.067087 -0.003042 -0.057863
v 0.080656 -0.014313 -0.056136
v 0.075611 -0.003042 -0.067406
v -0.096158 -0.003042 -0.026969
v -0.084887 -0.014313 -0.021818
v -0.086309 -0.003042 -0.035493
v -0.084887 -0.014313 -0.049167
v -0.096158 -0.003042 -0.044016
v -0.086309 -0.003042 0.048102
v -0.096158 -0.003042 0.056625
v -0.084887 -0.014313 0.061776
v -0.084887 -0.014313 0.034427
v -0.096158 -0.003042 0.039578
v 0.089844 -0.003042 0.048102
v 0.088423 -0.014313 0.061776
v 0.099693 -0.003042 0.056625
v 0.099693 -0.003042 0.039578
v 0.088423 -0.014313 0.034427
v 0.088423 -0.014313 -0.021818
v 0.099693 -0.003042 -0.026969
v 0.089844 -0.003042 -0.035493
v 0.099693 -0.003042 -0.044016
v 0.088423 -0.014313 -0.049167
v -0.084887 -0.014313 0.068745
v -0.096158 -0.003042 0.080015
v -0.096158 -0.003042 -0.067406
v -0.084887 -0.014313 -0.056136
v 0.088423 -0.014313 -0.056136
v 0.099693 -0.003042 -0.067406
v 0.099693 -0.003042 0.080015
v 0.088423 -0.014313 0.068745
v 0.001768 -0.003042 -0.067406
v 0.001768 -0.014313 -0.056136
v 0.001768 -0.003042 0.080015
v 0.001768 -0.014313 0.068745
v -0.066583 0.018501 -0.038689
v -0.055029 0.018501 -0.044016
v -0.056220 0.018501 -0.028801
v -0.072075 0.018501 -0.026969
v -0.068642 0.018501 0.053296
v -0.072075 0.018501 0.039578
v -0.056220 0.018501 0.041410
v -0.055029 0.018501 0.056625
v 0.069162 0.018501 0.050314
v 0.058564 0.018501 0.056625
v 0.059501 0.018501 0.040984
v 0.075611 0.018501 0.039578
v 0.072178 0.018501 -0.040687
v 0.075611 0.018501 -0.026969
v 0.059827 0.018501 -0.028893
v 0.058564 0.018501 -0.044016
v 0.001768 0.018501 -0.031231
v 0.001768 0.018501 -0.044016
v 0.001768 0.018501 0.043840
v 0.001768 0.018501 0.056625
v 0.075611 0.007230 0.080015
v 0.080656 0.018501 0.068745
v 0.067087 0.007230 0.070472
v 0.053519 0.018501 0.068745
v 0.058564 0.007230 0.080015
v -0.055029 0.007230 0.080015
v -0.049983 0.018501 0.068745
v -0.063552 0.007230 0.070472
v -0.077120 0.018501 0.068745
v -0.072075 0.007230 0.080015
v -0.072075 0.007230 -0.067406
v -0.077120 0.018501 -0.056136
v -0.063552 0.007230 -0.057863
v -0.049983 0.018501 -0.056136
v -0.055029 0.007230 -0.067406
v 0.058564 0.007230 -0.067406
v 0.053519 0.018501 -0.056136
v 0.067087 0.007230 -0.057863
v 0.080656 0.018501 -0.056136
v 0.075611 0.007230 -0.067406
v -0.096158 0.007230 -0.026969
v -0.084887 0.018501 -0.021818
v -0.086309 0.007230 -0.035493
v -0.084887 0.018501 -0.049167
v -0.096158 0.007230 -0.044016
v -0.086309 0.007230 0.048102
v -0.096158 0.007230 0.056625
v -0.084887 0.018501 0.061776
v -0.084887 0.018501 0.034427
v -0.096158 0.007230 0.039578
v 0.089844 0.007230 0.048102
v 0.088423 0.018501 0.061776
v 0.099693 0.007230 0.056625
v 0.099693 0.007230 0.039578
v 0.088423 0.018501 0.034427
v 0.088423 0.018501 -0.021818
v 0.099693 0.007230 -0.026969
v 0.089844 0.007230 -0.035493
v 0.099693 0.007230 -0.044016
v 0.088423 0.018501 -0.049167
v -0.084887 0.018501 0.068745
v -0.096158 0.007230 0.080015
v -0.096158 0.007230 -0.067406
v -0.084887 0.018501 -0.056136
v 0.088423 0.018501 -0.056136
v 0.099693 0.007230 -0.067406
v 0.099693 0.007230 0.080015
v 0.088423 0.018501 0.068745
v 0.001768 0.007230 -0.067406
v 0.001768 0.018501 -0.056136
v 0.001768 0.007230 0.080015
v 0.001768 0.018501 0.068745
vn 0.000000 -1.000000 0.000000
vn 0.000000 -1.000000 -0.000000
vn 0.000000 -1.000000 -0.000000
vn 0.000000 -1.000000 0.000000
vn 0.000000 -1.000000 -0.000000
vn 0.000000 -1.000000 0.000000
vn 0.000000 -1.000000 0.000000
vn 0.000000 -1.000000 -0.000000
vn 0.000000 -1.000000 0.000000
vn 0.000000 -1.000000 -0.000000
vn 0.000000 -1.000000 0.000000
vn 0.000000 -1.000000 -0.000000
vn 0.000000 -1.000000 -0.000000
vn 0.000000 -1.000000 -0.000000
vn 0.000000 -1.000000 -0.000000
vn 0.000000 -1.000000 -0.000000
vn -0.183323 -0.965074 -0.187151
vn -0.179788 -0.966429 0.183551
vn 0.183462 -0.965113 0.186813
vn 0.180027 -0.966338 -0.183795
vn -0.309337 -0.758524 0.573544
vn -0.256227 -0.851355 0.457758
vn 0.332864 -0.875931 0.349209
vn 0.398427 -0.816419 0.417991
vn 0.022319 -0.858103 0.512992
vn 0.140413 -0.732479 0.666152
vn 0.093451 -0.893144 0.439955
vn 0.000000 -0.707107 0.707107
vn 0.000000 -0.900872 0.434086
vn -0.125848 -0.719063 0.683455
vn -0.078729 -0.890365 0.448388
vn -0.056632 -0.828481 0.557147
vn 0.295015 -0.761874 0.576641
vn 0.253742 -0.844722 0.471232
vn -0.398427 -0.816418 0.417991
vn -0.342075 -0.868444 0.358872
vn 0.304731 -0.759435 -0.574802
vn 0.255169 -0.849327 -0.462096
vn -0.335800 -0.873574 -0.352289
vn -0.398427 -0.816418 -0.417991
vn -0.033102 -0.849550 -0.526468
vn -0.135649 -0.728200 -0.671807
vn -0.088577 -0.892146 -0.442978
vn 0.000000 -0.707107 -0.707107
vn 0.000000 -0.900871 -0.434086
vn 0.125848 -0.719063 -0.683455
vn 0.078729 -0.890365 -0.448388
vn 0.056632 -0.828481 -0.557147
vn -0.295015 -0.761874 -0.576641
vn -0.253742 -0.844722 -0.471232
vn 0.398427 -0.816418 -0.417991
vn 0.342075 -0.868444 -0.358872
vn -0.673567 -0.727964 -0.127968
vn -0.433066 -0.897673 -0.081471
vn -0.437834 -0.896123 0.072562
vn -0.684277 -0.719465 0.118889
vn -0.517232 -0.855151 -0.034459
vn -0.562273 -0.762233 0.320702
vn -0.452025 -0.850561 0.268735
vn -0.548027 -0.834501 0.057225
vn -0.461049 -0.846149 -0.267332
vn -0.564441 -0.764660 -0.310970
vn 0.504329 -0.863192 0.023501
vn 0.561711 -0.760917 -0.324785
vn 0.448305 -0.852421 -0.269075
vn 0.430376 -0.898569 0.085733
vn 0.668427 -0.731938 0.132180
vn 0.437834 -0.896123 -0.072562
vn 0.684277 -0.719465 -0.118889
vn 0.548027 -0.834501 -0.057225
vn 0.461049 -0.846149 0.267332
vn 0.564441 -0.764659 0.310970
vn 0.000000 1.000000 -0.000000
vn 0.000000 1.000000 -0.000000
vn 0.000000 1.000000 -0.000000
vn 0.000000 1.000000 -0.000000
vn 0.000000 1.000000 0.000000
vn 0.000000 1.000000 -0.000000
vn 0.000000 1.000000 0.000000
vn 0.000000 1.000000 -0.000000
vn 0.000000 1.000000 0.000000
vn 0.000000 1.000000 -0.000000
vn 0.000000 1.000000 -0.000000
vn 0.000000 1.000000 -0.000000
vn 0.000000 1.000000 -0.000000
vn 0.000000 1.000000 -0.000000
vn 0.000000 1.000000 -0.000000
vn 0.000000 1.000000 -0.000000
vn -0.183323 0.965074 -0.187151
vn -0.179788 0.966429 0.183551
vn 0.183462 0.965113 0.186813
vn 0.180027 0.966338 -0.183795
vn -0.309337 0.758524 0.573544
vn 0.398427 0.816418 0.417991
vn 0.332864 0.875931 0.349209
vn -0.256227 0.851355 0.457758
vn 0.022319 0.858104 0.512992
vn 0.093451 0.893144 0.439955
vn 0.140413 0.732479 0.666152
vn 0.000000 0.900872 0.434086
vn 0.000000 0.707107 0.707107
vn -0.125848 0.719063 0.683455
vn -0.078729 0.890365 0.448388
vn -0.056632 0.828481 0.557147
vn 0.253742 0.844722 0.471232
vn 0.295015 0.761874 0.576641
vn -0.342075 0.868444 0.358872
vn -0.398427 0.816418 0.417991
vn 0.304731 0.759435 -0.574802
vn -0.398427 0.816418 -0.417991
vn -0.335800 0.873574 -0.352289
vn 0.255169 0.849327 -0.462096
vn -0.033102 0.849550 -0.526468
vn -0.088577 0.892146 -0.442978
vn -0.135649 0.728200 -0.671807
vn 0.000000 0.900871 -0.434086
vn 0.000000 0.707107 -0.707107
vn 0.125848 0.719063 -0.683455
vn 0.078729 0.890365 -0.448388
vn 0.056632 0.828481 -0.557147
vn -0.253742 0.844722 -0.471232
vn -0.295015 0.761874 -0.576641
vn 0.342075 0.868444 -0.358872
vn 0.398427 0.816419 -0.417991
vn -0.673567 0.727964 -0.127968
vn -0.684277 0.719465 0.118889
vn -0.437834 0.896123 0.072562
vn -0.433066 0.897673 -0.081471
vn -0.517232 0.855151 -0.034459
vn -0.452025 0.850561 0.268736
vn -0.562273 0.762233 0.320702
vn -0.548026 0.834501 0.057225
vn -0.564441 0.764660 -0.310970
vn -0.461049 0.846149 -0.267332
vn 0.448305 0.852421 -0.269074
vn 0.561711 0.760917 -0.324785
vn 0.504329 0.863192 0.023501
vn 0.668427 0.731938 0.132180
vn 0.430376 0.898569 0.085733
vn 0.684277 0.719465 -0.118889
vn 0.437834 0.896123 -0.072562
vn 0.548027 0.834501 -0.057225
vn 0.564441 0.764659 0.310970
vn 0.461049 0.846149 0.267332
vn -0.280907 0.000000 0.959735
vn 0.696721 0.000000 0.717343
vn 0.696721 0.000000 0.717343
vn -0.280907 0.000000 0.959735
vn 0.955532 0.000000 -0.294887
vn 0.955532 0.000000 -0.294887
vn 1.000000 0.000000 0.000000
vn 1.000000 0.000000 0.000000
vn 0.991504 0.000000 0.130079
vn 0.991504 0.000000 0.130079
vn 0.991504 0.000000 -0.130079
vn 0.991504 0.000000 -0.130079
vn 1.000000 0.000000 0.000000
vn 1.000000 0.000000 0.000000
vn 0.955532 0.000000 0.294887
vn 0.955532 0.000000 0.294887
vn 0.696720 0.000000 -0.717343
vn 0.696720 0.000000 -0.717343
vn -0.280907 0.000000 -0.959735
vn -0.280907 0.000000 -0.959735
vn 0.000000 0.000000 -1.000000
vn 0.000000 0.000000 -1.000000
vn 0.144570 0.000000 -0.989495
vn 0.144570 0.000000 -0.989495
vn 0.000000 0.000000 -1.000000
vn 0.000000 0.000000 -1.000000
vn -0.144570 0.000000 -0.989495
vn -0.144570 0.000000 -0.989495
vn 0.000000 0.000000 -1.000000
vn 0.000000 0.000000 -1.000000
vn 0.280907 0.000000 -0.959735
vn 0.280907 0.000000 -0.959735
vn -0.696720 0.000000 -0.717343
vn -0.696720 0.000000 -0.717343
vn -0.955532 0.000000 0.294887
vn -0.955532 0.000000 0.294887
vn -1.000000 0.000000 0.000000
vn -1.000000 0.000000 0.000000
vn -0.991504 0.000000 -0.130079
vn -0.991504 0.000000 -0.130079
vn -0.991504 0.000000 0.130079
vn -0.991504 0.000000 0.130079
vn -1.000000 0.000000 0.000000
vn -1.000000 0.000000 0.000000
vn -0.955532 0.000000 -0.294887
vn -0.955532 0.000000 -0.294887
vn -0.696721 0.000000 0.717343
vn -0.696721 0.000000 0.717343
vn 0.280907 0.000000 0.959735
vn 0.280907 0.000000 0.959735
vn 0.000000 0.000000 1.000000
vn 0.000000 0.000000 1.000000
vn -0.144570 0.000000 0.989495
vn -0.144570 0.000000 0.989495
vn 0.000000 0.000000 1.000000
vn 0.000000 0.000000 1.000000
vn 0.144570 0.000000 0.989495
vn 0.144570 0.000000 0.989495
vn 0.000000 0.000000 1.000000
vn 0.000000 0.000000 1.000000
s 1
g pCube31
usemtl initialShadingGroup
f 3//1 2//2 18//3 17//4
f 4//5 3//1 7//6 6//7
f 11//8 10//9 20//10 19//11
f 12//12 11//8 15//13 14//14
f 7//6 3//1 17//4 19//11
f 19//11 17//4 15//13 11//8
f 16//15 15//13 17//4 18//3
f 8//16 7//6 19//11 20//10
f 1//17 2//2 3//1
f 3//1 4//5 1//17
f 7//6 8//16 5//18
f 5//18 6//7 7//6
f 9//19 10//9 11//8
f 11//8 12//12 9//19
f 15//13 16//15 13//20
f 13//20 14//14 15//13
f 21//21 22//22 68//23 67//24
f 22//22 21//21 23//25 9//19
f 9//19 23//25 25//26 24//27
f 24//27 25//26 71//28 72//29
f 26//30 27//31 72//29 71//28
f 27//31 26//30 28//32 5//18
f 5//18 28//32 30//33 29//34
f 29//34 30//33 62//35 61//36
f 31//37 32//38 64//39 63//40
f 32//38 31//37 33//41 1//17
f 1//17 33//41 35//42 34//43
f 34//43 35//42 69//44 70//45
f 36//46 37//47 70//45 69//44
f 37//47 36//46 38//48 13//20
f 13//20 38//48 40//49 39//50
f 39//50 40//49 66//51 65//52
f 41//53 42//54 49//55 50//56
f 42//54 41//53 43//57 1//17
f 1//17 43//57 45//58 44//59
f 44//59 45//58 63//40 64//39
f 5//18 46//60 50//56 49//55
f 46//60 5//18 48//61 47//62
f 47//62 48//61 61//36 62//35
f 9//19 51//63 53//64 52//65
f 51//63 9//19 55//66 54//67
f 52//65 53//64 67//24 68//23
f 54//67 55//66 56//68 57//69
f 57//69 56//68 13//20 58//70
f 58//70 13//20 60//71 59//72
f 59//72 60//71 65//52 66//51
f 5//18 49//55 6//7
f 14//14 13//20 56//68
f 49//55 42//54 4//5 6//7
f 56//68 55//66 12//12 14//14
f 48//61 5//18 29//34 61//36
f 64//39 32//38 1//17 44//59
f 13//20 39//50 65//52 60//71
f 22//22 9//19 52//65 68//23
f 34//43 70//45 18//3 2//2
f 70//45 37//47 16//15 18//3
f 8//16 20//10 72//29 27//31
f 20//10 10//9 24//27 72//29
f 9//19 24//27 10//9
f 27//31 5//18 8//16
f 1//17 34//43 2//2
f 37//47 13//20 16//15
f 42//54 1//17 4//5
f 55//66 9//19 12//12
s 9
f 75//73 89//74 90//75 74//76
f 76//77 78//78 79//79 75//73
f 83//80 91//81 92//82 82//83
f 84//84 86//85 87//86 83//80
f 79//79 91//81 89//74 75//73
f 91//81 83//80 87//86 89//74
f 88//87 90//75 89//74 87//86
f 80//88 92//82 91//81 79//79
f 73//89 75//73 74//76
f 75//73 73//89 76//77
f 79//79 77//90 80//88
f 77//90 79//79 78//78
f 81//91 83//80 82//83
f 83//80 81//91 84//84
f 87//86 85//92 88//87
f 85//92 87//86 86//85
f 93//93 139//94 140//95 94//96
f 94//96 81//91 95//97 93//93
f 81//91 96//98 97//99 95//97
f 96//98 144//100 143//101 97//99
f 98//102 143//101 144//100 99//103
f 99//103 77//90 100//104 98//102
f 77//90 101//105 102//106 100//104
f 101//105 133//107 134//108 102//106
f 103//109 135//110 136//111 104//112
f 104//112 73//89 105//113 103//109
f 73//89 106//114 107//115 105//113
f 106//114 142//116 141//117 107//115
f 108//118 141//117 142//116 109//119
f 109//119 85//92 110//120 108//118
f 85//92 111//121 112//122 110//120
f 111//121 137//123 138//124 112//122
f 113//125 122//126 121//127 114//128
f 114//128 73//89 115//129 113//125
f 73//89 116//130 117//131 115//129
f 116//130 136//111 135//110 117//131
f 77//90 121//127 122//126 118//132
f 118//132 119//133 120//134 77//90
f 119//133 134//108 133//107 120//134
f 81//91 124//135 125//136 123//137
f 123//137 126//138 127//139 81//91
f 124//135 140//95 139//94 125//136
f 126//138 129//140 128//141 127//139
f 129//140 130//142 85//92 128//141
f 130//142 131//143 132//144 85//92
f 131//143 138//124 137//123 132//144
f 77//90 78//78 121//127
f 86//85 128//141 85//92
f 121//127 78//78 76//77 114//128
f 128//141 86//85 84//84 127//139
f 120//134 133//107 101//105 77//90
f 136//111 116//130 73//89 104//112
f 85//92 132//144 137//123 111//121
f 94//96 140//95 124//135 81//91
f 106//114 74//76 90//75 142//116
f 142//116 90//75 88//87 109//119
f 80//88 99//103 144//100 92//82
f 92//82 144//100 96//98 82//83
f 81//91 82//83 96//98
f 99//103 80//88 77//90
f 73//89 74//76 106//114
f 109//119 88//87 85//92
f 114//128 76//77 73//89
f 127//139 84//84 81//91
s 16
f 21//145 67//146 139//147 93//148
f 67//146 53//149 125//150 139//147
f 53//149 51//151 123//152 125//150
f 51//151 54//153 126//154 123//152
f 54//153 57//155 129//156 126//154
f 57//155 58//157 130//158 129//156
f 58//157 59//159 131//160 130//158
f 59//159 66//161 138//162 131//160
f 66//161 40//163 112//164 138//162
f 40//163 38//165 110//166 112//164
f 38//165 36//167 108//168 110//166
f 36//167 69//169 141//170 108//168
f 69//169 35//171 107//172 141//170
f 35//171 33//173 105//174 107//172
f 33//173 31//175 103//176 105//174
f 31//175 63//177 135//178 103//176
f 63//177 45//179 117//180 135//178
f 45//179 43//181 115//182 117//180
f 43//181 41//183 113//184 115//182
f 41//183 50//185 122//186 113//184
f 50//185 46//187 118//188 122//186
f 46//187 47//189 119//190 118//188
f 47//189 62//191 134//192 119//190
f 62//191 30//193 102//194 134//192
f 30//193 28//195 100//196 102//194
f 28//195 26//197 98//198 100//196
f 26//197 71//199 143//200 98//198
f 71//199 25//201 97//202 143//200
f 25//201 23//203 95//204 97//202
f 23//203 21//145 93//148 95//204
