# This file uses centimeters as units for non-parametric coordinates.

mtllib floor.mtl
g default
v -16.596104 -0.526611 2.190748
v 16.596104 -0.526611 2.190748
v -16.596104 0.473389 2.190748
v 16.596104 0.473389 2.190748
v -16.596104 0.473389 -2.114488
v 16.596104 0.473389 -2.114488
v -16.596104 -0.526611 -2.114488
v 16.596104 -0.526611 -2.114488
v 0.000000 -0.526611 2.190748
v 0.000000 0.473389 2.190748
v 0.000000 0.473389 -2.114488
v 0.000000 -0.526611 -2.114488
vt 0.210350 0.131182
vt 0.210350 0.001992
vt 0.240358 0.001992
vt 0.240358 0.131182
vt 0.247449 0.131182
vt 0.247449 0.001992
vt 0.277457 0.001992
vt 0.277457 0.131182
vt 0.740721 0.973994
vt 0.463686 0.980732
vt 0.711354 0.980732
vt 0.988389 0.973994
vt 0.463686 0.026006
vt 0.711354 0.026006
vt 0.000554 0.998008
vt 0.000554 0.500000
vt 0.030561 0.500000
vt 0.030561 0.998008
vt 0.000554 0.001992
vt 0.030561 0.001992
vt 0.173251 0.998008
vt 0.173251 0.500000
vt 0.203258 0.500000
vt 0.203258 0.998008
vt 0.173251 0.001992
vt 0.203258 0.001992
vt 0.740721 0.019268
vt 0.988389 0.019268
vn 0.000000 0.000000 1.000000
vn 0.000000 0.000000 1.000000
vn 0.000000 0.000000 1.000000
vn 0.000000 0.000000 1.000000
vn 0.000000 1.000000 0.000000
vn 0.000000 1.000000 0.000000
vn 0.000000 1.000000 0.000000
vn 0.000000 1.000000 0.000000
vn 0.000000 0.000000 -1.000000
vn 0.000000 0.000000 -1.000000
vn 0.000000 0.000000 -1.000000
vn 0.000000 0.000000 -1.000000
vn 1.000000 0.000000 0.000000
vn 1.000000 0.000000 0.000000
vn 1.000000 0.000000 0.000000
vn 1.000000 0.000000 0.000000
vn -1.000000 0.000000 0.000000
vn -1.000000 0.000000 0.000000
vn -1.000000 0.000000 0.000000
vn -1.000000 0.000000 0.000000
vn 0.000000 0.000000 1.000000
vn 0.000000 0.000000 1.000000
vn 0.000000 1.000000 0.000000
vn 0.000000 1.000000 0.000000
vn 0.000000 0.000000 -1.000000
vn 0.000000 0.000000 -1.000000
s 1
g floor:pCube1
usemtl texturedFacets2
f 1/15/1 9/16/2 10/17/3 3/18/4
s 2
f 3/9/5 10/27/6 11/28/7 5/12/8
s 3
f 5/21/9 11/22/10 12/23/11 7/24/12
s off
f 2/1/13 8/2/14 6/3/15 4/4/16
f 7/5/17 1/6/18 3/7/19 5/8/20
s 1
f 10/17/3 9/16/2 2/19/21 4/20/22
s 2
f 11/11/7 10/10/6 4/13/23 6/14/24
s 3
f 12/23/11 11/22/10 6/25/25 8/26/26
