# This file uses centimeters as units for non-parametric coordinates.

mtllib proto Schraube.mtl
g default
v 0.565685 10.538739 -0.692100
v 0.000000 10.510563 -0.924714
v -0.565685 10.538739 -0.692100
v -0.800000 10.606765 -0.130519
v -0.565685 10.674789 0.431061
v 0.000000 10.702967 0.663675
v 0.565685 10.674789 0.431061
v 0.800000 10.606765 -0.130519
v 0.565685 11.206193 2.879196
v 0.000000 11.192744 2.645267
v -0.565685 11.206193 2.879196
v -0.800000 11.238660 3.443949
v -0.565685 11.271127 4.008701
v 0.000000 11.284575 4.242630
v 0.565685 11.271127 4.008701
v 0.800000 11.238660 3.443949
v 0.565685 13.265595 0.221145
v 0.565685 11.987971 -0.483503
v 0.000000 13.404353 0.077526
v 0.000000 12.131308 -0.676836
v -0.565685 13.265595 0.221354
v -0.565685 11.987766 -0.483519
v -0.800000 12.808500 0.607487
v -0.800000 11.677383 -0.010755
v -0.565685 12.350128 0.911882
v -0.565685 11.276238 0.470254
v 0.000000 12.159394 1.055193
v 0.000000 11.122613 0.675967
v 0.565685 12.350128 0.911939
v 0.565685 11.276183 0.470256
v 0.800000 12.808500 0.563650
v 0.800000 11.633727 -0.012335
v 0.565685 13.412050 3.099100
v 0.565685 12.486194 3.788865
v 0.000000 13.553036 3.238788
v 0.000000 12.600298 4.001558
v -0.565685 13.412050 3.099135
v -0.565685 12.486228 3.788867
v -0.800000 12.950458 2.773105
v -0.800000 12.196558 3.267745
v -0.565685 12.490144 2.427992
v -0.565685 11.919242 2.733949
v 0.000000 12.300341 2.289468
v 0.000000 11.797925 2.504355
v 0.565685 12.490144 2.427992
v 0.565685 11.919242 2.733949
v 0.800000 12.950458 2.773105
v 0.800000 12.196558 3.267745
v 0.350357 9.938394 3.000779
v 0.488132 10.101418 2.865512
v 0.000000 9.938394 2.856451
v 0.000000 10.101955 2.663546
v -0.349837 9.938394 3.001299
v -0.488132 10.101418 2.865512
v -0.495069 9.938394 3.351136
v -0.688389 10.101536 3.351136
v -0.349299 9.938394 3.700435
v -0.485751 10.103030 3.834851
v 0.000000 9.938394 3.843939
v 0.000000 10.103969 4.034821
v 0.348863 9.938394 3.700000
v 0.485750 10.103012 3.834850
v 0.495069 9.938394 3.351136
v 0.688389 10.101536 3.351136
v 0.565685 13.733497 1.989954
v 0.565685 13.733364 1.391470
v 0.800000 13.216697 1.400175
v 0.800000 13.215061 1.998662
v 0.565685 12.687280 1.400654
v 0.565685 12.683996 1.999137
v 0.000000 12.458862 1.402954
v 0.000000 12.454551 2.001432
v -0.565685 12.687050 1.399930
v -0.565685 12.684140 1.998710
v -0.800000 13.214700 1.421649
v -0.800000 13.213061 2.020773
v -0.565685 13.733397 1.391751
v -0.565685 13.733353 1.990667
v 0.000000 13.946321 1.389513
v 0.000000 13.946934 1.987997
v 0.414707 -0.977067 0.575152
v 0.565685 -0.819418 0.383395
v -0.000000 -1.016251 0.408044
v 0.000000 -0.872762 0.155349
v -0.414650 -0.977054 0.575207
v -0.565685 -0.819345 0.383378
v -0.586542 -0.882392 0.978908
v -0.800000 -0.690390 0.933887
v -0.414706 -0.787718 1.382662
v -0.565685 -0.561261 1.484346
v 0.000000 -0.748535 1.549765
v 0.000000 -0.507668 1.712328
v 0.414648 -0.787731 1.382605
v 0.565685 -0.561186 1.484329
v 0.586542 -0.882392 0.978908
v 0.800000 -0.690390 0.933887
vt 0.286728 0.824086
vt 0.242047 0.905098
vt 0.220330 0.876114
vt 0.256852 0.801624
vt 0.167839 0.934758
vt 0.167287 0.901997
vt 0.198245 0.847049
vt 0.226252 0.778952
vt 0.264346 0.736505
vt 0.299955 0.732192
vt 0.129890 0.934767
vt 0.129338 0.901894
vt 0.167256 0.868428
vt 0.228737 0.740819
vt 0.196853 0.020170
vt 0.231759 0.011988
vt 0.059561 0.914384
vt 0.080231 0.885115
vt 0.129308 0.868220
vt 0.161951 0.028362
vt 0.219600 0.001992
vt 0.193999 0.007995
vt 0.015824 0.855677
vt 0.048867 0.837312
vt 0.102115 0.855928
vt 0.168401 0.013998
vt 0.001884 0.778632
vt 0.037694 0.776573
vt 0.082714 0.819728
vt 0.012908 0.704563
vt 0.043579 0.704470
vt 0.073504 0.774514
vt 0.021458 0.694125
vt 0.043579 0.694125
vt 0.074372 0.704462
vt 0.065795 0.694125
vt 0.364137 0.905097
vt 0.319442 0.824072
vt 0.349419 0.804391
vt 0.388621 0.876113
vt 0.306216 0.732191
vt 0.341825 0.736505
vt 0.379919 0.778955
vt 0.407922 0.847049
vt 0.440246 0.901870
vt 0.438350 0.934760
vt 0.374411 0.011992
vt 0.409318 0.020169
vt 0.377434 0.740818
vt 0.438869 0.868412
vt 0.478235 0.901766
vt 0.476326 0.934757
vt 0.386574 0.001992
vt 0.412172 0.007994
vt 0.444221 0.028357
vt 0.476836 0.868228
vt 0.525940 0.885115
vt 0.546613 0.914383
vt 0.437774 0.013998
vt 0.504056 0.855927
vt 0.590348 0.855679
vt 0.557304 0.837311
vt 0.523457 0.819727
vt 0.568477 0.776572
vt 0.604287 0.778631
vt 0.532667 0.774513
vt 0.562592 0.704469
vt 0.593263 0.704564
vt 0.531799 0.704461
vt 0.562592 0.694124
vt 0.584740 0.694124
vt 0.540409 0.694124
vt 0.699472 0.932441
vt 0.708648 0.954657
vt 0.699377 0.976778
vt 0.677256 0.985905
vt 0.655107 0.976805
vt 0.645864 0.954657
vt 0.655073 0.932474
vt 0.677256 0.923289
vt 0.677256 0.998008
vt 0.708057 0.985328
vt 0.646455 0.985328
vt 0.677256 0.911058
vt 0.646304 0.923864
vt 0.708208 0.923864
vt 0.840628 0.129545
vt 0.840628 0.167494
vt 0.804759 0.167618
vt 0.804759 0.129669
vt 0.840628 0.241702
vt 0.804759 0.250809
vt 0.768889 0.167476
vt 0.768889 0.129500
vt 0.804759 0.050358
vt 0.840628 0.059216
vt 0.768889 0.241689
vt 0.768889 0.059213
vt 0.840628 0.015479
vt 0.804759 0.001992
vt 0.768889 0.015478
vt 0.786189 0.855451
vt 0.786189 0.893400
vt 0.750320 0.893546
vt 0.750320 0.855597
vt 0.786189 0.920593
vt 0.750320 0.911810
vt 0.714450 0.893373
vt 0.714450 0.855405
vt 0.750320 0.833546
vt 0.786189 0.824463
vt 0.714450 0.920593
vt 0.714450 0.824459
vt 0.865053 0.269044
vt 0.855479 0.281203
vt 0.829183 0.270607
vt 0.829183 0.254584
vt 0.866375 0.306805
vt 0.855476 0.332403
vt 0.829183 0.343002
vt 0.802887 0.332406
vt 0.791992 0.306805
vt 0.802891 0.281207
vt 0.793314 0.269043
vt 0.829183 0.353310
vt 0.865053 0.338853
vt 0.793314 0.338854
vt 0.682102 0.010791
vt 0.682102 0.091803
vt 0.646233 0.082714
vt 0.646233 0.001992
vt 0.682102 0.183696
vt 0.646233 0.185483
vt 0.610364 0.091816
vt 0.610364 0.010791
vt 0.682102 0.903900
vt 0.646233 0.907283
vt 0.610364 0.183696
vt 0.610364 0.903895
vt 0.689627 0.820684
vt 0.689627 0.752590
vt 0.725496 0.742849
vt 0.725496 0.808590
vt 0.689627 0.714453
vt 0.725496 0.716240
vt 0.761365 0.752587
vt 0.761365 0.820684
vt 0.689627 0.001992
vt 0.725496 0.005390
vt 0.761365 0.714453
vt 0.761365 0.001997
vt 0.872178 0.200316
vt 0.872178 0.164116
vt 0.908047 0.176151
vt 0.908047 0.208009
vt 0.943916 0.164116
vt 0.943916 0.200316
vt 0.908047 0.246382
vt 0.872178 0.245530
vt 0.943916 0.245530
vt 0.908047 0.315548
vt 0.877095 0.315582
vt 0.938999 0.315582
vt 0.884021 0.160341
vt 0.848152 0.153108
vt 0.848152 0.076060
vt 0.884021 0.076913
vt 0.853221 0.001993
vt 0.884021 0.002053
vt 0.919891 0.153106
vt 0.919891 0.076060
vt 0.914822 0.001992
vn 0.630940 0.573778 -0.522200
vn 0.651048 0.241399 -0.719627
vn -0.000068 0.335918 -0.941891
vn -0.000110 0.737588 -0.675251
vn 0.991897 0.093194 -0.086348
vn 0.996567 0.014865 -0.081447
vn -0.654306 0.240958 -0.716815
vn -0.636074 0.570119 -0.519976
vn -0.996072 0.017439 -0.086809
vn -0.992574 0.091787 -0.079831
vn -0.732640 -0.185867 0.654746
vn -0.759696 -0.360526 0.541187
vn -0.000017 -0.253047 0.967454
vn -0.000017 -0.501977 0.864881
vn 0.733282 -0.185378 0.654166
vn 0.765454 -0.355769 0.536198
vn 0.624951 0.645379 0.439229
vn 0.657448 0.296620 0.692660
vn 0.994956 0.037355 0.093098
vn 0.989395 0.122108 0.078655
vn 0.000055 0.819747 0.572725
vn 0.000013 0.401788 0.915733
vn -0.623619 0.645974 0.440247
vn -0.657446 0.296621 0.692662
vn -0.989430 0.121682 0.078881
vn -0.994956 0.037352 0.093098
vn -0.796491 -0.419878 -0.435091
vn -0.764011 -0.212609 -0.609168
vn -0.000034 -0.646180 -0.763185
vn 0.000000 -0.314801 -0.949158
vn 0.796821 -0.420499 -0.433885
vn 0.764011 -0.212609 -0.609168
vn 0.699842 -0.047999 -0.712683
vn 0.000006 -0.067513 -0.997718
vn 0.999973 0.002365 -0.006993
vn 0.706901 0.060110 0.704754
vn 0.000003 0.086785 0.996227
vn -0.707210 0.060033 0.704450
vn -0.999973 0.002358 -0.007015
vn -0.699956 -0.047961 -0.712573
vn -0.677185 -0.001567 0.735811
vn 0.000001 0.018435 0.999830
vn -0.997014 -0.045117 0.062673
vn -0.741552 -0.081675 -0.665905
vn -0.000000 -0.096294 -0.995353
vn 0.741552 -0.081675 -0.665905
vn 0.997014 -0.045117 0.062672
vn 0.677185 -0.001566 0.735811
vn 0.092437 -0.991373 -0.092920
vn 0.694166 -0.137279 -0.706604
vn 0.982811 -0.184403 -0.008809
vn 0.130993 -0.991383 0.000619
vn -0.000060 -0.991367 -0.131116
vn -0.000027 -0.117399 -0.993085
vn -0.092264 -0.991406 -0.092745
vn -0.694153 -0.137403 -0.706592
vn -0.131006 -0.991381 0.000512
vn -0.982808 -0.184417 -0.008859
vn -0.092419 -0.991289 0.093835
vn -0.690919 -0.229216 0.685631
vn 0.000047 -0.991250 0.131996
vn 0.000022 -0.246979 0.969021
vn 0.092269 -0.991317 0.093683
vn 0.690903 -0.229312 0.685616
vn 0.621125 0.768745 0.152428
vn 0.617066 0.758932 -0.207970
vn -0.000106 0.966188 -0.257839
vn 0.000055 0.981368 0.192138
vn 0.994825 0.098361 0.025468
vn 0.993055 0.110879 -0.039332
vn 0.745335 -0.655109 -0.123723
vn 0.756809 -0.625452 0.189865
vn -0.000025 -0.980823 -0.194901
vn -0.000021 -0.948034 0.318170
vn -0.744562 -0.656131 -0.122961
vn -0.750106 -0.632206 0.194052
vn -0.994630 0.100161 0.026045
vn -0.993059 0.110670 -0.039827
vn -0.618906 0.770563 0.152280
vn -0.621820 0.755043 -0.207968
vn 0.093793 -0.986416 0.134854
vn 0.688734 -0.082810 -0.720269
vn 0.999392 -0.016178 -0.030899
vn 0.132695 -0.964979 0.226289
vn -0.000015 -0.995281 0.097034
vn 0.000020 -0.109408 -0.993997
vn -0.093795 -0.986416 0.134852
vn -0.688735 -0.082810 -0.720268
vn -0.132695 -0.964987 0.226259
vn -0.999393 -0.016175 -0.030868
vn -0.093792 -0.943543 0.317694
vn -0.720922 0.053057 0.690982
vn 0.000016 -0.934672 0.355512
vn -0.000010 0.082202 0.996616
vn 0.093794 -0.943542 0.317696
vn 0.720921 0.053057 0.690984
s 1
g pCylinder4
usemtl texturedFacets2
f 17/128/1 18/129/2 20/130/3 19/131/4
f 18/1/2 17/2/1 31/3/5 32/4/6
f 19/131/4 20/130/3 22/134/7 21/135/8
f 21/37/8 22/38/7 24/39/9 23/40/10
f 23/40/10 24/39/9 26/43/11 25/44/12
f 25/140/12 26/141/11 28/142/13 27/143/14
f 27/143/14 28/142/13 30/146/15 29/147/16
f 29/7/16 30/8/15 32/4/6 31/3/5
f 33/17/17 34/23/18 48/24/19 47/18/20
f 34/99/18 33/96/17 35/95/21 36/100/22
f 36/100/22 35/95/21 37/98/23 38/101/24
f 38/61/24 37/58/23 39/57/25 40/62/26
f 40/62/26 39/57/25 41/60/27 42/63/28
f 42/152/28 41/153/27 43/154/29 44/155/30
f 44/155/30 43/154/29 45/156/31 46/157/32
f 46/29/32 45/25/31 47/18/20 48/24/19
f 20/130/3 18/129/2 1/132/33 2/133/34
f 18/1/2 32/4/6 8/9/35 1/10/33
f 32/4/6 30/8/15 7/14/36 8/9/35
f 30/146/15 28/142/13 6/145/37 7/150/36
f 28/142/13 26/141/11 5/144/38 6/145/37
f 26/43/11 24/39/9 4/42/39 5/49/38
f 24/39/9 22/38/7 3/41/40 4/42/39
f 22/134/7 20/130/3 2/133/34 3/138/40
f 36/164/22 38/165/24 13/166/41 14/167/42
f 38/61/24 40/62/26 12/64/43 13/65/41
f 40/62/26 42/63/28 11/66/44 12/64/43
f 42/152/28 44/155/30 10/158/45 11/159/44
f 44/155/30 46/157/32 9/160/46 10/158/45
f 46/29/32 48/24/19 16/28/47 9/32/46
f 48/24/19 34/23/18 15/27/48 16/28/47
f 34/170/18 36/164/22 14/167/42 15/171/48
f 49/36/49 50/35/50 64/31/51 63/34/52
f 50/86/50 49/73/49 51/80/53 52/84/54
f 52/84/54 51/80/53 53/79/55 54/85/56
f 54/69/56 53/72/55 55/70/57 56/67/58
f 56/67/58 55/70/57 57/71/59 58/68/60
f 58/83/60 57/77/59 59/76/61 60/81/62
f 60/81/62 59/76/61 61/75/63 62/82/64
f 62/30/64 61/33/63 63/34/52 64/31/51
f 50/163/50 52/161/54 10/158/45 9/160/46
f 52/161/54 54/162/56 11/159/44 10/158/45
f 54/69/56 56/67/58 12/64/43 11/66/44
f 56/67/58 58/68/60 13/65/41 12/64/43
f 58/168/60 60/169/62 14/167/42 13/166/41
f 60/169/62 62/172/64 15/171/48 14/167/42
f 62/30/64 64/31/51 16/28/47 15/27/48
f 64/31/51 50/35/50 9/32/46 16/28/47
f 49/73/49 63/74/52 61/75/63 59/76/61 57/77/59 55/78/57 53/79/55 51/80/53
f 65/87/65 66/88/66 79/89/67 80/90/68
f 66/5/66 65/11/65 68/12/69 67/6/70
f 67/6/70 68/12/69 70/19/71 69/13/72
f 69/102/72 70/103/71 72/104/73 71/105/74
f 71/105/74 72/104/73 74/108/75 73/109/76
f 73/50/76 74/56/75 76/51/77 75/45/78
f 75/45/78 76/51/77 78/52/79 77/46/80
f 77/93/80 78/94/79 80/90/68 79/89/67
f 17/91/1 19/92/4 79/89/67 66/88/66
f 19/92/4 21/97/8 77/93/80 79/89/67
f 21/37/8 23/40/10 75/45/78 77/46/80
f 23/40/10 25/44/12 73/50/76 75/45/78
f 25/113/12 27/110/14 71/105/74 73/109/76
f 27/110/14 29/111/16 69/102/72 71/105/74
f 29/7/16 31/3/5 67/6/70 69/13/72
f 31/3/5 17/2/1 66/5/66 67/6/70
f 68/12/69 65/11/65 33/17/17 47/18/20
f 70/19/71 68/12/69 47/18/20 45/25/31
f 72/104/73 70/103/71 45/106/31 43/107/29
f 74/108/75 72/104/73 43/107/29 41/112/27
f 76/51/77 74/56/75 41/60/27 39/57/25
f 78/52/79 76/51/77 39/57/25 37/58/23
f 80/90/68 78/94/79 37/98/23 35/95/21
f 65/87/65 80/90/68 35/95/21 33/96/17
f 81/21/81 82/16/82 96/15/83 95/22/84
f 82/114/82 81/115/81 83/116/85 84/117/86
f 84/117/86 83/116/85 85/123/87 86/124/88
f 86/47/88 85/53/87 87/54/89 88/48/90
f 88/48/90 87/54/89 89/59/91 90/55/92
f 90/127/92 89/121/91 91/120/93 92/125/94
f 92/125/94 91/120/93 93/119/95 94/126/96
f 94/20/96 93/26/95 95/22/84 96/15/83
f 82/136/82 84/137/86 2/133/34 1/132/33
f 84/137/86 86/139/88 3/138/40 2/133/34
f 86/47/88 88/48/90 4/42/39 3/41/40
f 88/48/90 90/55/92 5/49/38 4/42/39
f 90/148/92 92/149/94 6/145/37 5/144/38
f 92/149/94 94/151/96 7/150/36 6/145/37
f 94/20/96 96/15/83 8/9/35 7/14/36
f 96/15/83 82/16/82 1/10/33 8/9/35
f 81/115/81 95/118/84 93/119/95 91/120/93 89/121/91 87/122/89 85/123/87 83/116/85
