# This file uses centimeters as units for non-parametric coordinates.

mtllib smartie.mtl
g default
v -0.499591 0.258443 -0.647662
v -0.497365 0.244569 -0.650768
v -0.495778 0.232537 -0.643033
v -0.495761 0.229395 -0.628989
v -0.497323 0.236985 -0.616861
v -0.499549 0.250860 -0.613756
v -0.501136 0.262892 -0.621490
v -0.501153 0.266033 -0.635535
v -0.511795 0.271994 -0.669791
v -0.506420 0.238497 -0.677289
v -0.502590 0.209449 -0.658616
v -0.502548 0.201866 -0.624709
v -0.506319 0.220190 -0.595432
v -0.511694 0.253686 -0.587934
v -0.515524 0.282734 -0.606607
v -0.515566 0.290318 -0.640514
v -0.519516 0.272981 -0.673102
v -0.513699 0.236724 -0.681218
v -0.509553 0.205283 -0.661006
v -0.509507 0.197075 -0.624306
v -0.513589 0.216908 -0.592616
v -0.519407 0.253165 -0.584500
v -0.523553 0.284606 -0.604712
v -0.523598 0.292814 -0.641412
v -0.526786 0.269699 -0.670286
v -0.521411 0.236202 -0.677784
v -0.517581 0.207154 -0.659111
v -0.517539 0.199571 -0.625204
v -0.521310 0.217895 -0.595927
v -0.526685 0.251392 -0.588428
v -0.530516 0.280440 -0.607102
v -0.530557 0.288023 -0.641008
v -0.532498 0.262649 -0.661772
v -0.528385 0.237012 -0.667511
v -0.525453 0.214779 -0.653219
v -0.525421 0.208975 -0.627268
v -0.528307 0.223000 -0.604860
v -0.532421 0.248637 -0.599121
v -0.535353 0.270869 -0.613413
v -0.535385 0.276673 -0.639364
v -0.535783 0.252903 -0.648856
v -0.533556 0.239028 -0.651962
v -0.531970 0.226996 -0.644227
v -0.531952 0.223855 -0.630183
v -0.533514 0.231445 -0.618056
v -0.535741 0.245320 -0.614950
v -0.537327 0.257352 -0.622685
v -0.537345 0.260493 -0.636729
v -0.496966 0.247943 -0.632213
v -0.536140 0.241946 -0.633505
vt 0.000000 0.125000
vt 0.125000 0.125000
vt 0.250000 0.125000
vt 0.375000 0.125000
vt 0.500000 0.125000
vt 0.625000 0.125000
vt 0.750000 0.125000
vt 0.875000 0.125000
vt 1.000000 0.125000
vt 0.000000 0.375000
vt 0.125000 0.375000
vt 0.250000 0.375000
vt 0.375000 0.375000
vt 0.500000 0.375000
vt 0.625000 0.375000
vt 0.750000 0.375000
vt 0.875000 0.375000
vt 1.000000 0.375000
vt 0.000000 0.500000
vt 0.125000 0.500000
vt 0.250000 0.500000
vt 0.375000 0.500000
vt 0.500000 0.500000
vt 0.625000 0.500000
vt 0.750000 0.500000
vt 0.875000 0.500000
vt 1.000000 0.500000
vt 0.000000 0.625000
vt 0.125000 0.625000
vt 0.250000 0.625000
vt 0.375000 0.625000
vt 0.500000 0.625000
vt 0.625000 0.625000
vt 0.750000 0.625000
vt 0.875000 0.625000
vt 1.000000 0.625000
vt 0.000000 0.750000
vt 0.125000 0.750000
vt 0.250000 0.750000
vt 0.375000 0.750000
vt 0.500000 0.750000
vt 0.625000 0.750000
vt 0.750000 0.750000
vt 0.875000 0.750000
vt 1.000000 0.750000
vt 0.000000 0.875000
vt 0.125000 0.875000
vt 0.250000 0.875000
vt 0.375000 0.875000
vt 0.500000 0.875000
vt 0.625000 0.875000
vt 0.750000 0.875000
vt 0.875000 0.875000
vt 1.000000 0.875000
vt 0.062500 0.000000
vt 0.187500 0.000000
vt 0.312500 0.000000
vt 0.437500 0.000000
vt 0.562500 0.000000
vt 0.687500 0.000000
vt 0.812500 0.000000
vt 0.937500 0.000000
vt 0.062500 1.000000
vt 0.187500 1.000000
vt 0.312500 1.000000
vt 0.437500 1.000000
vt 0.562500 1.000000
vt 0.687500 1.000000
vt 0.812500 1.000000
vt 0.937500 1.000000
vn 0.947861 0.084610 -0.307248
vn 0.828135 0.021810 -0.560105
vn 0.757600 0.461376 -0.461708
vn 0.907213 0.337924 -0.250544
vn 0.976827 -0.135059 -0.166034
vn 0.878399 -0.359376 -0.315061
vn 0.977145 -0.192406 0.090377
vn 0.878950 -0.458887 0.129880
vn 0.948627 -0.053837 0.311783
vn 0.829464 -0.218432 0.514078
vn 0.907979 0.199477 0.368487
vn 0.758930 0.221134 0.612475
vn 0.879013 0.419146 0.227273
vn 0.708665 0.602319 0.367431
vn 0.878695 0.476493 -0.029138
vn 0.708114 0.701831 -0.077510
vn 0.058086 -0.167301 -0.984193
vn -0.060319 0.570591 -0.819017
vn 0.142465 -0.807189 -0.572843
vn 0.143390 -0.974237 0.174071
vn 0.060319 -0.570591 0.819016
vn -0.058086 0.167301 0.984193
vn -0.142465 0.807189 0.572843
vn -0.143390 0.974238 -0.174071
vn -0.628509 -0.225509 -0.744394
vn -0.715400 0.315991 -0.623179
vn -0.566588 -0.695089 -0.442526
vn -0.565909 -0.817677 0.105595
vn -0.626871 -0.521462 0.578887
vn -0.713762 0.020037 0.700102
vn -0.775683 0.489618 0.398233
vn -0.776362 0.612206 -0.149888
vn -0.870816 -0.207775 -0.445544
vn -0.920863 0.104116 -0.375727
vn -0.835151 -0.478243 -0.271674
vn -0.834760 -0.548851 0.044031
vn -0.869872 -0.378237 0.316636
vn -0.919920 -0.066346 0.386453
vn -0.955585 0.204122 0.212584
vn -0.955976 0.274730 -0.103122
vn -0.949639 -0.184961 -0.252931
vn -0.976247 -0.019146 -0.215813
vn -0.930678 -0.328755 -0.160494
vn -0.930471 -0.366293 0.007350
vn -0.949138 -0.275587 0.152279
vn -0.975745 -0.109771 0.189397
vn -0.994707 0.034022 0.096960
vn -0.994914 0.071560 -0.070883
vn 0.987960 0.151234 0.032601
vn -0.987960 -0.151234 -0.032601
s 1
g pSphere62
usemtl initialShadingGroup
f 2/2/1 10/11/2 9/10/3 1/1/4
f 3/3/5 11/12/6 10/11/2 2/2/1
f 4/4/7 12/13/8 11/12/6 3/3/5
f 5/5/9 13/14/10 12/13/8 4/4/7
f 6/6/11 14/15/12 13/14/10 5/5/9
f 7/7/13 15/16/14 14/15/12 6/6/11
f 8/8/15 16/17/16 15/16/14 7/7/13
f 1/9/4 9/18/3 16/17/16 8/8/15
f 9/10/3 10/11/2 18/20/17 17/19/18
f 10/11/2 11/12/6 19/21/19 18/20/17
f 11/12/6 12/13/8 20/22/20 19/21/19
f 12/13/8 13/14/10 21/23/21 20/22/20
f 13/14/10 14/15/12 22/24/22 21/23/21
f 14/15/12 15/16/14 23/25/23 22/24/22
f 15/16/14 16/17/16 24/26/24 23/25/23
f 16/17/16 9/18/3 17/27/18 24/26/24
f 17/19/18 18/20/17 26/29/25 25/28/26
f 18/20/17 19/21/19 27/30/27 26/29/25
f 19/21/19 20/22/20 28/31/28 27/30/27
f 20/22/20 21/23/21 29/32/29 28/31/28
f 21/23/21 22/24/22 30/33/30 29/32/29
f 22/24/22 23/25/23 31/34/31 30/33/30
f 23/25/23 24/26/24 32/35/32 31/34/31
f 24/26/24 17/27/18 25/36/26 32/35/32
f 25/28/26 26/29/25 34/38/33 33/37/34
f 26/29/25 27/30/27 35/39/35 34/38/33
f 27/30/27 28/31/28 36/40/36 35/39/35
f 28/31/28 29/32/29 37/41/37 36/40/36
f 29/32/29 30/33/30 38/42/38 37/41/37
f 30/33/30 31/34/31 39/43/39 38/42/38
f 31/34/31 32/35/32 40/44/40 39/43/39
f 32/35/32 25/36/26 33/45/34 40/44/40
f 33/37/34 34/38/33 42/47/41 41/46/42
f 34/38/33 35/39/35 43/48/43 42/47/41
f 35/39/35 36/40/36 44/49/44 43/48/43
f 36/40/36 37/41/37 45/50/45 44/49/44
f 37/41/37 38/42/38 46/51/46 45/50/45
f 38/42/38 39/43/39 47/52/47 46/51/46
f 39/43/39 40/44/40 48/53/48 47/52/47
f 40/44/40 33/45/34 41/54/42 48/53/48
f 2/2/1 1/1/4 49/55/49
f 3/3/5 2/2/1 49/56/49
f 4/4/7 3/3/5 49/57/49
f 5/5/9 4/4/7 49/58/49
f 6/6/11 5/5/9 49/59/49
f 7/7/13 6/6/11 49/60/49
f 8/8/15 7/7/13 49/61/49
f 1/9/4 8/8/15 49/62/49
f 41/46/42 42/47/41 50/63/50
f 42/47/41 43/48/43 50/64/50
f 43/48/43 44/49/44 50/65/50
f 44/49/44 45/50/45 50/66/50
f 45/50/45 46/51/46 50/67/50
f 46/51/46 47/52/47 50/68/50
f 47/52/47 48/53/48 50/69/50
f 48/53/48 41/54/42 50/70/50
