# This file uses centimeters as units for non-parametric coordinates.

mtllib smartie 4.mtl
g default
v 0.032139 -0.036091 -0.011698
v 0.026200 -0.036091 -0.021985
v 0.017101 -0.036091 -0.029620
v 0.005939 -0.036091 -0.033682
v -0.005939 -0.036091 -0.033682
v -0.017101 -0.036091 -0.029620
v -0.026200 -0.036091 -0.021985
v -0.032139 -0.036091 -0.011698
v -0.034202 -0.036091 -0.000000
v -0.032139 -0.036091 0.011698
v -0.026200 -0.036091 0.021985
v -0.017101 -0.036091 0.029620
v -0.005939 -0.036091 0.033682
v 0.005939 -0.036091 0.033682
v 0.017101 -0.036091 0.029620
v 0.026200 -0.036091 0.021985
v 0.032139 -0.036091 0.011698
v 0.034202 -0.036091 0.000000
v 0.060402 -0.029421 -0.021985
v 0.049240 -0.029421 -0.041318
v 0.032139 -0.029421 -0.055667
v 0.011162 -0.029421 -0.063302
v -0.011162 -0.029421 -0.063302
v -0.032139 -0.029421 -0.055667
v -0.049240 -0.029421 -0.041318
v -0.060402 -0.029421 -0.021985
v -0.064279 -0.029421 -0.000000
v -0.060402 -0.029421 0.021985
v -0.049240 -0.029421 0.041318
v -0.032139 -0.029421 0.055667
v -0.011162 -0.029421 0.063302
v 0.011162 -0.029421 0.063302
v 0.032139 -0.029421 0.055667
v 0.049240 -0.029421 0.041318
v 0.060402 -0.029421 0.021985
v 0.064279 -0.029421 0.000000
v 0.081380 -0.019203 -0.029620
v 0.066341 -0.019203 -0.055667
v 0.043301 -0.019203 -0.075000
v 0.015038 -0.019203 -0.085287
v -0.015038 -0.019203 -0.085287
v -0.043301 -0.019203 -0.075000
v -0.066341 -0.019203 -0.055667
v -0.081380 -0.019203 -0.029620
v -0.086603 -0.019203 -0.000000
v -0.081380 -0.019203 0.029620
v -0.066341 -0.019203 0.055667
v -0.043301 -0.019203 0.075000
v -0.015038 -0.019203 0.085287
v 0.015038 -0.019203 0.085287
v 0.043301 -0.019203 0.075000
v 0.066341 -0.019203 0.055667
v 0.081380 -0.019203 0.029620
v 0.086603 -0.019203 0.000000
v 0.088302 -0.013136 -0.032139
v 0.071985 -0.013136 -0.060402
v 0.046985 -0.013136 -0.081380
v 0.016318 -0.013136 -0.092542
v -0.016318 -0.013136 -0.092542
v -0.046985 -0.013136 -0.081380
v -0.071985 -0.013136 -0.060402
v -0.088302 -0.013136 -0.032139
v -0.093969 -0.013136 -0.000000
v -0.088302 -0.013136 0.032139
v -0.071985 -0.013136 0.060402
v -0.046985 -0.013136 0.081380
v -0.016318 -0.013136 0.092542
v 0.016318 -0.013136 0.092542
v 0.046985 -0.013136 0.081380
v 0.071985 -0.013136 0.060402
v 0.088302 -0.013136 0.032139
v 0.093969 -0.013136 0.000000
v 0.092542 -0.006669 -0.033682
v 0.075441 -0.006669 -0.063302
v 0.049240 -0.006669 -0.085287
v 0.017101 -0.006669 -0.096985
v -0.017101 -0.006669 -0.096985
v -0.049240 -0.006669 -0.085287
v -0.075441 -0.006669 -0.063302
v -0.092542 -0.006669 -0.033682
v -0.098481 -0.006669 -0.000000
v -0.092542 -0.006669 0.033682
v -0.075441 -0.006669 0.063302
v -0.049240 -0.006669 0.085287
v -0.017101 -0.006669 0.096985
v 0.017101 -0.006669 0.096985
v 0.049240 -0.006669 0.085287
v 0.075441 -0.006669 0.063302
v 0.092542 -0.006669 0.033682
v 0.098481 -0.006669 0.000000
v 0.093969 0.000000 -0.034202
v 0.076604 0.000000 -0.064279
v 0.050000 0.000000 -0.086603
v 0.017365 0.000000 -0.098481
v -0.017365 0.000000 -0.098481
v -0.050000 0.000000 -0.086603
v -0.076604 0.000000 -0.064279
v -0.093969 0.000000 -0.034202
v -0.100000 0.000000 -0.000000
v -0.093969 0.000000 0.034202
v -0.076604 0.000000 0.064279
v -0.050000 0.000000 0.086603
v -0.017365 0.000000 0.098481
v 0.017365 0.000000 0.098481
v 0.050000 0.000000 0.086603
v 0.076604 0.000000 0.064279
v 0.093969 0.000000 0.034202
v 0.100000 0.000000 0.000000
v 0.092542 0.006669 -0.033682
v 0.075441 0.006669 -0.063302
v 0.049240 0.006669 -0.085287
v 0.017101 0.006669 -0.096985
v -0.017101 0.006669 -0.096985
v -0.049240 0.006669 -0.085287
v -0.075441 0.006669 -0.063302
v -0.092542 0.006669 -0.033682
v -0.098481 0.006669 -0.000000
v -0.092542 0.006669 0.033682
v -0.075441 0.006669 0.063302
v -0.049240 0.006669 0.085287
v -0.017101 0.006669 0.096985
v 0.017101 0.006669 0.096985
v 0.049240 0.006669 0.085287
v 0.075441 0.006669 0.063302
v 0.092542 0.006669 0.033682
v 0.098481 0.006669 0.000000
v 0.081380 0.019203 -0.029620
v 0.066341 0.019203 -0.055667
v 0.043301 0.019203 -0.075000
v 0.015038 0.019203 -0.085287
v -0.015038 0.019203 -0.085287
v -0.043301 0.019203 -0.075000
v -0.066341 0.019203 -0.055667
v -0.081380 0.019203 -0.029620
v -0.086603 0.019203 -0.000000
v -0.081380 0.019203 0.029620
v -0.066341 0.019203 0.055667
v -0.043301 0.019203 0.075000
v -0.015038 0.019203 0.085287
v 0.015038 0.019203 0.085287
v 0.043301 0.019203 0.075000
v 0.066341 0.019203 0.055667
v 0.081380 0.019203 0.029620
v 0.086603 0.019203 0.000000
v 0.060402 0.029421 -0.021985
v 0.049240 0.029421 -0.041318
v 0.032139 0.029421 -0.055667
v 0.011162 0.029421 -0.063302
v -0.011162 0.029421 -0.063302
v -0.032139 0.029421 -0.055667
v -0.049240 0.029421 -0.041318
v -0.060402 0.029421 -0.021985
v -0.064279 0.029421 -0.000000
v -0.060402 0.029421 0.021985
v -0.049240 0.029421 0.041318
v -0.032139 0.029421 0.055667
v -0.011162 0.029421 0.063302
v 0.011162 0.029421 0.063302
v 0.032139 0.029421 0.055667
v 0.049240 0.029421 0.041318
v 0.060402 0.029421 0.021985
v 0.064279 0.029421 0.000000
v 0.032139 0.036091 -0.011698
v 0.026200 0.036091 -0.021985
v 0.017101 0.036091 -0.029620
v 0.005939 0.036091 -0.033682
v -0.005939 0.036091 -0.033682
v -0.017101 0.036091 -0.029620
v -0.026200 0.036091 -0.021985
v -0.032139 0.036091 -0.011698
v -0.034202 0.036091 -0.000000
v -0.032139 0.036091 0.011698
v -0.026200 0.036091 0.021985
v -0.017101 0.036091 0.029620
v -0.005939 0.036091 0.033682
v 0.005939 0.036091 0.033682
v 0.017101 0.036091 0.029620
v 0.026200 0.036091 0.021985
v 0.032139 0.036091 0.011698
v 0.034202 0.036091 0.000000
v 0.000000 -0.038407 0.000000
v 0.000000 0.038407 0.000000
vt 0.785901 0.451263
vt 0.793602 0.465567
vt 0.748193 0.477964
vt 0.774437 0.440364
vt 0.760292 0.434012
vt 0.745029 0.432652
vt 0.730189 0.436285
vt 0.717273 0.444538
vt 0.707610 0.456645
vt 0.702329 0.471489
vt 0.963980 0.205041
vt 0.979441 0.204749
vt 0.971049 0.249027
vt 0.949750 0.210339
vt 0.938190 0.219883
vt 0.930431 0.232605
vt 0.927263 0.247138
vt 0.929050 0.261950
vt 0.935671 0.275427
vt 0.946499 0.286012
vt 0.960418 0.292333
vt 0.975772 0.293289
vt 0.818262 0.424483
vt 0.834273 0.450122
vt 0.795815 0.406158
vt 0.769600 0.395716
vt 0.741873 0.393826
vt 0.715072 0.400494
vt 0.691545 0.415089
vt 0.673332 0.436470
vt 0.662165 0.463201
vt 0.955652 0.166638
vt 0.984350 0.164420
vt 0.929937 0.177296
vt 0.909150 0.195150
vt 0.895087 0.218519
vt 0.889142 0.245208
vt 0.892077 0.272620
vt 0.903840 0.297988
vt 0.923614 0.318656
vt 0.950006 0.332338
vt 0.981528 0.337140
vt 0.841589 0.402837
vt 0.864851 0.435596
vt 0.811309 0.379227
vt 0.776183 0.365869
vt 0.739146 0.363685
vt 0.703399 0.372660
vt 0.671988 0.391893
vt 0.647315 0.419775
vt 0.630897 0.454731
vt 0.947844 0.136857
vt 0.986104 0.132115
vt 0.913886 0.151760
vt 0.886222 0.175878
vt 0.867252 0.207343
vt 0.858988 0.243368
vt 0.862568 0.280546
vt 0.877970 0.315191
vt 0.904024 0.343766
vt 0.938648 0.363476
vt 0.979790 0.372735
vt 0.850379 0.394230
vt 0.876375 0.429245
vt 0.817178 0.368713
vt 0.778650 0.354255
vt 0.738037 0.351965
vt 0.698862 0.361852
vt 0.664474 0.382868
vt 0.637439 0.413134
vt 0.618903 0.450748
vt 0.944570 0.125434
vt 0.986055 0.119465
vt 0.907585 0.141880
vt 0.877264 0.168360
vt 0.856368 0.202926
vt 0.847152 0.242574
vt 0.850950 0.283563
vt 0.867728 0.321827
vt 0.896188 0.353452
vt 0.933848 0.375395
vt 0.978269 0.386486
vt 0.857643 0.386972
vt 0.885574 0.423567
vt 0.822053 0.359880
vt 0.780695 0.344496
vt 0.737087 0.342125
vt 0.695054 0.352777
vt 0.658187 0.375300
vt 0.629242 0.407529
vt 0.609205 0.446988
vt 0.941751 0.115920
vt 0.985490 0.109060
vt 0.902288 0.133605
vt 0.869736 0.162033
vt 0.847201 0.199190
vt 0.837175 0.241883
vt 0.841138 0.286073
vt 0.859072 0.327386
vt 0.889547 0.361560
vt 0.929716 0.385317
vt 0.976463 0.397719
vt 0.864067 0.380489
vt 0.893192 0.418125
vt 0.826390 0.351985
vt 0.782504 0.335775
vt 0.736230 0.333330
vt 0.691645 0.344683
vt 0.652588 0.368551
vt 0.621999 0.402525
vt 0.601047 0.443170
vt 0.939217 0.107489
vt 0.984385 0.100104
vt 0.897552 0.126223
vt 0.863005 0.156369
vt 0.838993 0.195836
vt 0.828236 0.241241
vt 0.832335 0.288310
vt 0.851299 0.332346
vt 0.883581 0.368793
vt 0.925984 0.394114
vt 0.974236 0.407318
vt 0.908360 0.040332
vt 0.884154 0.095718
vt 0.875321 0.089008
vt 0.897549 0.037159
vt 0.844750 0.132192
vt 0.839087 0.124019
vt 0.799375 0.153805
vt 0.796591 0.144812
vt 0.751659 0.160681
vt 0.751686 0.151573
vt 0.705274 0.153357
vt 0.707921 0.144844
vt 0.663778 0.133144
vt 0.668703 0.125847
vt 0.629911 0.102433
vt 0.636608 0.096733
vt 0.605154 0.064148
vt 0.612868 0.059575
vt 0.526271 0.105458
vt 0.574395 0.108091
vt 0.571873 0.117423
vt 0.526135 0.114238
vt 0.618929 0.129874
vt 0.613557 0.137475
vt 0.653033 0.163928
vt 0.645666 0.169265
vt 0.674055 0.206229
vt 0.665524 0.208899
vt 0.680571 0.252294
vt 0.671745 0.252141
vt 0.672434 0.297572
vt 0.664169 0.294709
vt 0.650905 0.337809
vt 0.643954 0.332575
vt 0.618358 0.369446
vt 0.613288 0.362393
vt 0.578091 0.390161
vt 0.575165 0.381955
vt 0.533840 0.399607
vt 0.532324 0.390822
vt 0.853906 0.073777
vt 0.871027 0.031199
vt 0.824913 0.104429
vt 0.789520 0.122962
vt 0.751546 0.129346
vt 0.714294 0.123996
vt 0.680735 0.107926
vt 0.653226 0.082750
vt 0.633275 0.049865
vt 0.565769 0.139703
vt 0.526988 0.136403
vt 0.600708 0.155948
vt 0.627892 0.182298
vt 0.644857 0.215465
vt 0.650311 0.251849
vt 0.644060 0.287782
vt 0.627002 0.319837
vt 0.600908 0.345131
vt 0.568096 0.361660
vt 0.530582 0.368400
vt 0.824271 0.054899
vt 0.835189 0.024779
vt 0.804389 0.078113
vt 0.778896 0.092742
vt 0.750849 0.098205
vt 0.722989 0.094608
vt 0.697766 0.082624
vt 0.677264 0.063364
vt 0.663277 0.038137
vt 0.557624 0.170164
vt 0.529139 0.167870
vt 0.583315 0.181605
vt 0.603513 0.200591
vt 0.616280 0.224817
vt 0.620525 0.251610
vt 0.616015 0.278211
vt 0.603323 0.302001
vt 0.583693 0.320730
vt 0.558815 0.332635
vt 0.530558 0.336377
vt 0.787335 0.034037
vt 0.792297 0.018462
vt 0.777495 0.046697
vt 0.764202 0.055124
vt 0.749076 0.058565
vt 0.733791 0.056863
vt 0.719912 0.050256
vt 0.708873 0.039452
vt 0.701882 0.025456
vt 0.548205 0.208308
vt 0.532933 0.207509
vt 0.562153 0.214080
vt 0.573248 0.224061
vt 0.580374 0.237034
vt 0.582822 0.251561
vt 0.580387 0.266069
vt 0.573332 0.279036
vt 0.562370 0.289074
vt 0.548535 0.295072
vt 0.533222 0.296186
vt 0.746013 0.013243
vt 0.539250 0.251707
vn 0.139126 -0.983370 -0.116741
vn 0.170663 -0.983370 -0.062116
vn 0.000000 -1.000000 -0.000000
vn 0.090808 -0.983370 -0.157284
vn 0.031537 -0.983370 -0.178857
vn -0.031537 -0.983370 -0.178857
vn -0.090808 -0.983370 -0.157284
vn -0.139126 -0.983370 -0.116741
vn -0.170663 -0.983370 -0.062116
vn -0.181616 -0.983369 -0.000000
vn -0.170663 -0.983370 0.062116
vn -0.139126 -0.983370 0.116741
vn -0.090808 -0.983370 0.157284
vn -0.031537 -0.983370 0.178857
vn 0.031537 -0.983370 0.178857
vn 0.090808 -0.983370 0.157284
vn 0.139126 -0.983370 0.116741
vn 0.170663 -0.983370 0.062116
vn 0.181616 -0.983370 0.000000
vn 0.259197 -0.941018 -0.217492
vn 0.317952 -0.941018 -0.115725
vn 0.169179 -0.941018 -0.293026
vn 0.058755 -0.941018 -0.333217
vn -0.058755 -0.941018 -0.333217
vn -0.169179 -0.941018 -0.293026
vn -0.259197 -0.941018 -0.217492
vn -0.317952 -0.941018 -0.115725
vn -0.338358 -0.941018 -0.000000
vn -0.317952 -0.941018 0.115725
vn -0.259197 -0.941018 0.217492
vn -0.169179 -0.941018 0.293026
vn -0.058755 -0.941018 0.333217
vn 0.058755 -0.941018 0.333217
vn 0.169179 -0.941018 0.293026
vn 0.259197 -0.941018 0.217492
vn 0.317952 -0.941018 0.115725
vn 0.338358 -0.941018 0.000000
vn 0.382284 -0.866581 -0.320774
vn 0.468941 -0.866581 -0.170680
vn 0.249518 -0.866581 -0.432178
vn 0.086657 -0.866581 -0.491455
vn -0.086657 -0.866581 -0.491455
vn -0.249518 -0.866581 -0.432178
vn -0.382284 -0.866581 -0.320774
vn -0.468941 -0.866581 -0.170681
vn -0.499036 -0.866581 -0.000000
vn -0.468941 -0.866581 0.170680
vn -0.382284 -0.866581 0.320774
vn -0.249518 -0.866581 0.432178
vn -0.086657 -0.866581 0.491455
vn 0.086657 -0.866581 0.491455
vn 0.249518 -0.866581 0.432178
vn 0.382284 -0.866581 0.320774
vn 0.468941 -0.866581 0.170680
vn 0.499036 -0.866581 0.000000
vn 0.563703 -0.677131 -0.473003
vn 0.691484 -0.677131 -0.251680
vn 0.367931 -0.677131 -0.637275
vn 0.127781 -0.677132 -0.724683
vn -0.127781 -0.677132 -0.724683
vn -0.367931 -0.677131 -0.637275
vn -0.563703 -0.677132 -0.473003
vn -0.691484 -0.677132 -0.251680
vn -0.735862 -0.677131 -0.000000
vn -0.691484 -0.677131 0.251679
vn -0.563703 -0.677131 0.473003
vn -0.367931 -0.677132 0.637275
vn -0.127781 -0.677132 0.724683
vn 0.127781 -0.677131 0.724683
vn 0.367931 -0.677131 0.637275
vn 0.563703 -0.677132 0.473003
vn 0.691484 -0.677132 0.251680
vn 0.735862 -0.677132 0.000000
vn 0.699883 -0.406542 -0.587271
vn 0.858533 -0.406543 -0.312480
vn 0.456816 -0.406542 -0.791228
vn 0.158651 -0.406542 -0.899752
vn -0.158650 -0.406543 -0.899752
vn -0.456816 -0.406543 -0.791229
vn -0.699883 -0.406543 -0.587271
vn -0.858533 -0.406543 -0.312481
vn -0.913632 -0.406543 -0.000000
vn -0.858533 -0.406542 0.312480
vn -0.699883 -0.406542 0.587271
vn -0.456816 -0.406542 0.791228
vn -0.158651 -0.406542 0.899752
vn 0.158651 -0.406543 0.899752
vn 0.456816 -0.406543 0.791228
vn 0.699883 -0.406543 0.587271
vn 0.858533 -0.406543 0.312481
vn 0.913632 -0.406542 0.000000
vn 0.766045 -0.000000 -0.642787
vn 0.939693 -0.000000 -0.342020
vn 0.500000 0.000000 -0.866025
vn 0.173649 0.000000 -0.984808
vn -0.173648 -0.000000 -0.984808
vn -0.500000 -0.000000 -0.866026
vn -0.766044 0.000000 -0.642788
vn -0.939693 -0.000000 -0.342020
vn -1.000000 -0.000000 -0.000000
vn -0.939693 -0.000000 0.342020
vn -0.766044 0.000000 0.642788
vn -0.500000 -0.000000 0.866025
vn -0.173648 -0.000000 0.984808
vn 0.173648 0.000000 0.984808
vn 0.500000 0.000000 0.866026
vn 0.766044 0.000000 0.642788
vn 0.939693 0.000000 0.342020
vn 1.000000 0.000000 0.000000
vn 0.636800 0.555849 -0.534338
vn 0.781151 0.555849 -0.284316
vn 0.415642 0.555849 -0.719912
vn 0.144351 0.555849 -0.818654
vn -0.144351 0.555849 -0.818654
vn -0.415642 0.555849 -0.719913
vn -0.636800 0.555849 -0.534339
vn -0.781151 0.555849 -0.284316
vn -0.831283 0.555849 -0.000000
vn -0.781151 0.555849 0.284315
vn -0.636800 0.555849 0.534338
vn -0.415642 0.555849 0.719912
vn -0.144351 0.555849 0.818654
vn 0.144351 0.555849 0.818654
vn 0.415642 0.555849 0.719912
vn 0.636800 0.555849 0.534339
vn 0.781151 0.555849 0.284316
vn 0.831283 0.555849 0.000000
vn 0.447518 0.811615 -0.375512
vn 0.548962 0.811615 -0.199806
vn 0.292097 0.811615 -0.505926
vn 0.101444 0.811615 -0.575318
vn -0.101444 0.811615 -0.575318
vn -0.292096 0.811615 -0.505926
vn -0.447518 0.811615 -0.375512
vn -0.548962 0.811615 -0.199806
vn -0.584193 0.811615 -0.000000
vn -0.548962 0.811615 0.199806
vn -0.447518 0.811615 0.375512
vn -0.292097 0.811615 0.505926
vn -0.101444 0.811615 0.575318
vn 0.101444 0.811615 0.575318
vn 0.292097 0.811615 0.505926
vn 0.447518 0.811615 0.375512
vn 0.548962 0.811615 0.199806
vn 0.584193 0.811615 0.000000
vn 0.259197 0.941018 -0.217492
vn 0.317952 0.941018 -0.115725
vn 0.169179 0.941018 -0.293026
vn 0.058755 0.941018 -0.333217
vn -0.058755 0.941018 -0.333217
vn -0.169179 0.941018 -0.293026
vn -0.259197 0.941018 -0.217492
vn -0.317952 0.941018 -0.115725
vn -0.338358 0.941018 -0.000000
vn -0.317952 0.941018 0.115725
vn -0.259197 0.941018 0.217492
vn -0.169179 0.941018 0.293026
vn -0.058755 0.941018 0.333217
vn 0.058755 0.941018 0.333217
vn 0.169179 0.941018 0.293026
vn 0.259197 0.941018 0.217492
vn 0.317952 0.941018 0.115725
vn 0.338358 0.941018 0.000000
vn 0.139126 0.983370 -0.116741
vn 0.170663 0.983370 -0.062116
vn 0.090808 0.983370 -0.157284
vn 0.031537 0.983370 -0.178857
vn -0.031537 0.983370 -0.178857
vn -0.090808 0.983370 -0.157284
vn -0.139126 0.983370 -0.116741
vn -0.170663 0.983370 -0.062116
vn -0.181616 0.983370 -0.000000
vn -0.170663 0.983370 0.062116
vn -0.139126 0.983370 0.116741
vn -0.090808 0.983370 0.157284
vn -0.031537 0.983370 0.178857
vn 0.031537 0.983370 0.178857
vn 0.090808 0.983370 0.157284
vn 0.139126 0.983370 0.116741
vn 0.170663 0.983370 0.062116
vn 0.181616 0.983370 -0.000000
vn 0.000000 1.000000 0.000000
s 1
g polySurface6
usemtl initialShadingGroup
f 2/1/1 1/2/2 181/3/3
f 3/4/4 2/1/1 181/3/3
f 4/5/5 3/4/4 181/3/3
f 5/6/6 4/5/5 181/3/3
f 6/7/7 5/6/6 181/3/3
f 7/8/8 6/7/7 181/3/3
f 8/9/9 7/8/8 181/3/3
f 9/10/10 8/9/9 181/3/3
f 10/11/11 9/12/10 181/13/3
f 11/14/12 10/11/11 181/13/3
f 12/15/13 11/14/12 181/13/3
f 13/16/14 12/15/13 181/13/3
f 14/17/15 13/16/14 181/13/3
f 15/18/16 14/17/15 181/13/3
f 16/19/17 15/18/16 181/13/3
f 17/20/18 16/19/17 181/13/3
f 18/21/19 17/20/18 181/13/3
f 1/22/2 18/21/19 181/13/3
f 2/1/1 20/23/20 19/24/21 1/2/2
f 3/4/4 21/25/22 20/23/20 2/1/1
f 4/5/5 22/26/23 21/25/22 3/4/4
f 5/6/6 23/27/24 22/26/23 4/5/5
f 6/7/7 24/28/25 23/27/24 5/6/6
f 7/8/8 25/29/26 24/28/25 6/7/7
f 8/9/9 26/30/27 25/29/26 7/8/8
f 9/10/10 27/31/28 26/30/27 8/9/9
f 10/11/11 28/32/29 27/33/28 9/12/10
f 11/14/12 29/34/30 28/32/29 10/11/11
f 12/15/13 30/35/31 29/34/30 11/14/12
f 13/16/14 31/36/32 30/35/31 12/15/13
f 14/17/15 32/37/33 31/36/32 13/16/14
f 15/18/16 33/38/34 32/37/33 14/17/15
f 16/19/17 34/39/35 33/38/34 15/18/16
f 17/20/18 35/40/36 34/39/35 16/19/17
f 18/21/19 36/41/37 35/40/36 17/20/18
f 1/22/2 19/42/21 36/41/37 18/21/19
f 20/23/20 38/43/38 37/44/39 19/24/21
f 21/25/22 39/45/40 38/43/38 20/23/20
f 22/26/23 40/46/41 39/45/40 21/25/22
f 23/27/24 41/47/42 40/46/41 22/26/23
f 24/28/25 42/48/43 41/47/42 23/27/24
f 25/29/26 43/49/44 42/48/43 24/28/25
f 26/30/27 44/50/45 43/49/44 25/29/26
f 27/31/28 45/51/46 44/50/45 26/30/27
f 28/32/29 46/52/47 45/53/46 27/33/28
f 29/34/30 47/54/48 46/52/47 28/32/29
f 30/35/31 48/55/49 47/54/48 29/34/30
f 31/36/32 49/56/50 48/55/49 30/35/31
f 32/37/33 50/57/51 49/56/50 31/36/32
f 33/38/34 51/58/52 50/57/51 32/37/33
f 34/39/35 52/59/53 51/58/52 33/38/34
f 35/40/36 53/60/54 52/59/53 34/39/35
f 36/41/37 54/61/55 53/60/54 35/40/36
f 19/42/21 37/62/39 54/61/55 36/41/37
f 37/44/39 38/43/38 56/63/56 55/64/57
f 38/43/38 39/45/40 57/65/58 56/63/56
f 39/45/40 40/46/41 58/66/59 57/65/58
f 40/46/41 41/47/42 59/67/60 58/66/59
f 41/47/42 42/48/43 60/68/61 59/67/60
f 42/48/43 43/49/44 61/69/62 60/68/61
f 43/49/44 44/50/45 62/70/63 61/69/62
f 44/50/45 45/51/46 63/71/64 62/70/63
f 45/53/46 46/52/47 64/72/65 63/73/64
f 46/52/47 47/54/48 65/74/66 64/72/65
f 47/54/48 48/55/49 66/75/67 65/74/66
f 48/55/49 49/56/50 67/76/68 66/75/67
f 49/56/50 50/57/51 68/77/69 67/76/68
f 50/57/51 51/58/52 69/78/70 68/77/69
f 51/58/52 52/59/53 70/79/71 69/78/70
f 52/59/53 53/60/54 71/80/72 70/79/71
f 53/60/54 54/61/55 72/81/73 71/80/72
f 54/61/55 37/62/39 55/82/57 72/81/73
f 55/64/57 56/63/56 74/83/74 73/84/75
f 56/63/56 57/65/58 75/85/76 74/83/74
f 57/65/58 58/66/59 76/86/77 75/85/76
f 58/66/59 59/67/60 77/87/78 76/86/77
f 59/67/60 60/68/61 78/88/79 77/87/78
f 60/68/61 61/69/62 79/89/80 78/88/79
f 61/69/62 62/70/63 80/90/81 79/89/80
f 62/70/63 63/71/64 81/91/82 80/90/81
f 63/73/64 64/72/65 82/92/83 81/93/82
f 64/72/65 65/74/66 83/94/84 82/92/83
f 65/74/66 66/75/67 84/95/85 83/94/84
f 66/75/67 67/76/68 85/96/86 84/95/85
f 67/76/68 68/77/69 86/97/87 85/96/86
f 68/77/69 69/78/70 87/98/88 86/97/87
f 69/78/70 70/79/71 88/99/89 87/98/88
f 70/79/71 71/80/72 89/100/90 88/99/89
f 71/80/72 72/81/73 90/101/91 89/100/90
f 72/81/73 55/82/57 73/102/75 90/101/91
f 73/84/75 74/83/74 92/103/92 91/104/93
f 74/83/74 75/85/76 93/105/94 92/103/92
f 75/85/76 76/86/77 94/106/95 93/105/94
f 76/86/77 77/87/78 95/107/96 94/106/95
f 77/87/78 78/88/79 96/108/97 95/107/96
f 78/88/79 79/89/80 97/109/98 96/108/97
f 79/89/80 80/90/81 98/110/99 97/109/98
f 80/90/81 81/91/82 99/111/100 98/110/99
f 81/93/82 82/92/83 100/112/101 99/113/100
f 82/92/83 83/94/84 101/114/102 100/112/101
f 83/94/84 84/95/85 102/115/103 101/114/102
f 84/95/85 85/96/86 103/116/104 102/115/103
f 85/96/86 86/97/87 104/117/105 103/116/104
f 86/97/87 87/98/88 105/118/106 104/117/105
f 87/98/88 88/99/89 106/119/107 105/118/106
f 88/99/89 89/100/90 107/120/108 106/119/107
f 89/100/90 90/101/91 108/121/109 107/120/108
f 90/101/91 73/102/75 91/122/93 108/121/109
f 91/123/93 92/124/92 110/125/110 109/126/111
f 92/124/92 93/127/94 111/128/112 110/125/110
f 93/127/94 94/129/95 112/130/113 111/128/112
f 94/129/95 95/131/96 113/132/114 112/130/113
f 95/131/96 96/133/97 114/134/115 113/132/114
f 96/133/97 97/135/98 115/136/116 114/134/115
f 97/135/98 98/137/99 116/138/117 115/136/116
f 98/137/99 99/139/100 117/140/118 116/138/117
f 99/141/100 100/142/101 118/143/119 117/144/118
f 100/142/101 101/145/102 119/146/120 118/143/119
f 101/145/102 102/147/103 120/148/121 119/146/120
f 102/147/103 103/149/104 121/150/122 120/148/121
f 103/149/104 104/151/105 122/152/123 121/150/122
f 104/151/105 105/153/106 123/154/124 122/152/123
f 105/153/106 106/155/107 124/156/125 123/154/124
f 106/155/107 107/157/108 125/158/126 124/156/125
f 107/157/108 108/159/109 126/160/127 125/158/126
f 108/159/109 91/161/93 109/162/111 126/160/127
f 110/125/110 128/163/128 127/164/129 109/126/111
f 111/128/112 129/165/130 128/163/128 110/125/110
f 112/130/113 130/166/131 129/165/130 111/128/112
f 113/132/114 131/167/132 130/166/131 112/130/113
f 114/134/115 132/168/133 131/167/132 113/132/114
f 115/136/116 133/169/134 132/168/133 114/134/115
f 116/138/117 134/170/135 133/169/134 115/136/116
f 117/140/118 135/171/136 134/170/135 116/138/117
f 118/143/119 136/172/137 135/173/136 117/144/118
f 119/146/120 137/174/138 136/172/137 118/143/119
f 120/148/121 138/175/139 137/174/138 119/146/120
f 121/150/122 139/176/140 138/175/139 120/148/121
f 122/152/123 140/177/141 139/176/140 121/150/122
f 123/154/124 141/178/142 140/177/141 122/152/123
f 124/156/125 142/179/143 141/178/142 123/154/124
f 125/158/126 143/180/144 142/179/143 124/156/125
f 126/160/127 144/181/145 143/180/144 125/158/126
f 109/162/111 127/182/129 144/181/145 126/160/127
f 128/163/128 146/183/146 145/184/147 127/164/129
f 129/165/130 147/185/148 146/183/146 128/163/128
f 130/166/131 148/186/149 147/185/148 129/165/130
f 131/167/132 149/187/150 148/186/149 130/166/131
f 132/168/133 150/188/151 149/187/150 131/167/132
f 133/169/134 151/189/152 150/188/151 132/168/133
f 134/170/135 152/190/153 151/189/152 133/169/134
f 135/171/136 153/191/154 152/190/153 134/170/135
f 136/172/137 154/192/155 153/193/154 135/173/136
f 137/174/138 155/194/156 154/192/155 136/172/137
f 138/175/139 156/195/157 155/194/156 137/174/138
f 139/176/140 157/196/158 156/195/157 138/175/139
f 140/177/141 158/197/159 157/196/158 139/176/140
f 141/178/142 159/198/160 158/197/159 140/177/141
f 142/179/143 160/199/161 159/198/160 141/178/142
f 143/180/144 161/200/162 160/199/161 142/179/143
f 144/181/145 162/201/163 161/200/162 143/180/144
f 127/182/129 145/202/147 162/201/163 144/181/145
f 146/183/146 164/203/164 163/204/165 145/184/147
f 147/185/148 165/205/166 164/203/164 146/183/146
f 148/186/149 166/206/167 165/205/166 147/185/148
f 149/187/150 167/207/168 166/206/167 148/186/149
f 150/188/151 168/208/169 167/207/168 149/187/150
f 151/189/152 169/209/170 168/208/169 150/188/151
f 152/190/153 170/210/171 169/209/170 151/189/152
f 153/191/154 171/211/172 170/210/171 152/190/153
f 154/192/155 172/212/173 171/213/172 153/193/154
f 155/194/156 173/214/174 172/212/173 154/192/155
f 156/195/157 174/215/175 173/214/174 155/194/156
f 157/196/158 175/216/176 174/215/175 156/195/157
f 158/197/159 176/217/177 175/216/176 157/196/158
f 159/198/160 177/218/178 176/217/177 158/197/159
f 160/199/161 178/219/179 177/218/178 159/198/160
f 161/200/162 179/220/180 178/219/179 160/199/161
f 162/201/163 180/221/181 179/220/180 161/200/162
f 145/202/147 163/222/165 180/221/181 162/201/163
f 164/203/164 182/223/182 163/204/165
f 165/205/166 182/223/182 164/203/164
f 166/206/167 182/223/182 165/205/166
f 167/207/168 182/223/182 166/206/167
f 168/208/169 182/223/182 167/207/168
f 169/209/170 182/223/182 168/208/169
f 170/210/171 182/223/182 169/209/170
f 171/211/172 182/223/182 170/210/171
f 172/212/173 182/224/182 171/213/172
f 173/214/174 182/224/182 172/212/173
f 174/215/175 182/224/182 173/214/174
f 175/216/176 182/224/182 174/215/175
f 176/217/177 182/224/182 175/216/176
f 177/218/178 182/224/182 176/217/177
f 178/219/179 182/224/182 177/218/178
f 179/220/180 182/224/182 178/219/179
f 180/221/181 182/224/182 179/220/180
f 163/222/165 182/224/182 180/221/181
