# This file uses centimeters as units for non-parametric coordinates.

mtllib smartie 3.mtl
g default
v 0.032139 -0.036091 -0.250618
v 0.026200 -0.036091 -0.260905
v 0.017101 -0.036091 -0.268540
v 0.005939 -0.036091 -0.272603
v -0.005939 -0.036091 -0.272603
v -0.017101 -0.036091 -0.268540
v -0.026200 -0.036091 -0.260905
v -0.032139 -0.036091 -0.250618
v -0.034202 -0.036091 -0.238921
v -0.032139 -0.036091 -0.227223
v -0.026200 -0.036091 -0.216936
v -0.017101 -0.036091 -0.209301
v -0.005939 -0.036091 -0.205238
v 0.005939 -0.036091 -0.205238
v 0.017101 -0.036091 -0.209301
v 0.026200 -0.036091 -0.216936
v 0.032139 -0.036091 -0.227223
v 0.034202 -0.036091 -0.238921
v 0.060402 -0.029421 -0.260905
v 0.049240 -0.029421 -0.280238
v 0.032139 -0.029421 -0.294588
v 0.011162 -0.029421 -0.302223
v -0.011162 -0.029421 -0.302223
v -0.032139 -0.029421 -0.294588
v -0.049240 -0.029421 -0.280238
v -0.060402 -0.029421 -0.260905
v -0.064279 -0.029421 -0.238921
v -0.060402 -0.029421 -0.216936
v -0.049240 -0.029421 -0.197603
v -0.032139 -0.029421 -0.183253
v -0.011162 -0.029421 -0.175618
v 0.011162 -0.029421 -0.175618
v 0.032139 -0.029421 -0.183253
v 0.049240 -0.029421 -0.197603
v 0.060402 -0.029421 -0.216936
v 0.064279 -0.029421 -0.238921
v 0.081380 -0.019203 -0.268540
v 0.066341 -0.019203 -0.294588
v 0.043301 -0.019203 -0.313920
v 0.015038 -0.019203 -0.324207
v -0.015038 -0.019203 -0.324207
v -0.043301 -0.019203 -0.313921
v -0.066341 -0.019203 -0.294588
v -0.081380 -0.019203 -0.268540
v -0.086603 -0.019203 -0.238921
v -0.081380 -0.019203 -0.209301
v -0.066341 -0.019203 -0.183253
v -0.043301 -0.019203 -0.163921
v -0.015038 -0.019203 -0.153634
v 0.015038 -0.019203 -0.153634
v 0.043301 -0.019203 -0.163921
v 0.066341 -0.019203 -0.183253
v 0.081380 -0.019203 -0.209301
v 0.086603 -0.019203 -0.238921
v 0.088302 -0.013136 -0.271060
v 0.071985 -0.013136 -0.299323
v 0.046985 -0.013136 -0.320300
v 0.016318 -0.013136 -0.331462
v -0.016318 -0.013136 -0.331462
v -0.046985 -0.013136 -0.320300
v -0.071985 -0.013136 -0.299323
v -0.088302 -0.013136 -0.271060
v -0.093969 -0.013136 -0.238921
v -0.088302 -0.013136 -0.206781
v -0.071985 -0.013136 -0.178518
v -0.046985 -0.013136 -0.157541
v -0.016318 -0.013136 -0.146379
v 0.016318 -0.013136 -0.146379
v 0.046985 -0.013136 -0.157541
v 0.071985 -0.013136 -0.178518
v 0.088302 -0.013136 -0.206781
v 0.093969 -0.013136 -0.238921
v 0.092542 -0.006669 -0.272603
v 0.075441 -0.006669 -0.302223
v 0.049240 -0.006669 -0.324207
v 0.017101 -0.006669 -0.335905
v -0.017101 -0.006669 -0.335905
v -0.049240 -0.006669 -0.324207
v -0.075441 -0.006669 -0.302223
v -0.092542 -0.006669 -0.272603
v -0.098481 -0.006669 -0.238921
v -0.092542 -0.006669 -0.205238
v -0.075441 -0.006669 -0.175618
v -0.049240 -0.006669 -0.153634
v -0.017101 -0.006669 -0.141936
v 0.017101 -0.006669 -0.141936
v 0.049240 -0.006669 -0.153634
v 0.075441 -0.006669 -0.175618
v 0.092542 -0.006669 -0.205238
v 0.098481 -0.006669 -0.238921
v 0.093969 0.000000 -0.273122
v 0.076604 0.000000 -0.303199
v 0.050000 0.000000 -0.325523
v 0.017365 -0.000000 -0.337401
v -0.017365 -0.000000 -0.337401
v -0.050000 0.000000 -0.325523
v -0.076604 0.000000 -0.303199
v -0.093969 0.000000 -0.273123
v -0.100000 0.000000 -0.238921
v -0.093969 0.000000 -0.204719
v -0.076604 0.000000 -0.174642
v -0.050000 0.000000 -0.152318
v -0.017365 0.000000 -0.140440
v 0.017365 0.000000 -0.140440
v 0.050000 0.000000 -0.152318
v 0.076604 0.000000 -0.174642
v 0.093969 -0.000000 -0.204719
v 0.100000 -0.000000 -0.238921
v 0.092542 0.006669 -0.272603
v 0.075441 0.006669 -0.302223
v 0.049240 0.006669 -0.324207
v 0.017101 0.006669 -0.335905
v -0.017101 0.006669 -0.335905
v -0.049240 0.006669 -0.324207
v -0.075441 0.006669 -0.302223
v -0.092542 0.006669 -0.272603
v -0.098481 0.006669 -0.238921
v -0.092542 0.006669 -0.205238
v -0.075441 0.006669 -0.175618
v -0.049240 0.006669 -0.153634
v -0.017101 0.006669 -0.141936
v 0.017101 0.006669 -0.141936
v 0.049240 0.006669 -0.153634
v 0.075441 0.006669 -0.175618
v 0.092542 0.006669 -0.205238
v 0.098481 0.006669 -0.238921
v 0.081380 0.019203 -0.268540
v 0.066341 0.019203 -0.294588
v 0.043301 0.019203 -0.313920
v 0.015038 0.019203 -0.324207
v -0.015038 0.019203 -0.324207
v -0.043301 0.019203 -0.313921
v -0.066341 0.019203 -0.294588
v -0.081380 0.019203 -0.268540
v -0.086603 0.019203 -0.238921
v -0.081380 0.019203 -0.209301
v -0.066341 0.019203 -0.183253
v -0.043301 0.019203 -0.163921
v -0.015038 0.019203 -0.153634
v 0.015038 0.019203 -0.153634
v 0.043301 0.019203 -0.163921
v 0.066341 0.019203 -0.183253
v 0.081380 0.019203 -0.209301
v 0.086603 0.019203 -0.238921
v 0.060402 0.029421 -0.260905
v 0.049240 0.029421 -0.280238
v 0.032139 0.029421 -0.294588
v 0.011162 0.029421 -0.302223
v -0.011162 0.029421 -0.302223
v -0.032139 0.029421 -0.294588
v -0.049240 0.029421 -0.280238
v -0.060402 0.029421 -0.260905
v -0.064279 0.029421 -0.238921
v -0.060402 0.029421 -0.216936
v -0.049240 0.029421 -0.197603
v -0.032139 0.029421 -0.183253
v -0.011162 0.029421 -0.175618
v 0.011162 0.029421 -0.175618
v 0.032139 0.029421 -0.183253
v 0.049240 0.029421 -0.197603
v 0.060402 0.029421 -0.216936
v 0.064279 0.029421 -0.238921
v 0.032139 0.036091 -0.250618
v 0.026200 0.036091 -0.260905
v 0.017101 0.036091 -0.268540
v 0.005939 0.036091 -0.272603
v -0.005939 0.036091 -0.272603
v -0.017101 0.036091 -0.268540
v -0.026200 0.036091 -0.260905
v -0.032139 0.036091 -0.250618
v -0.034202 0.036091 -0.238921
v -0.032139 0.036091 -0.227223
v -0.026200 0.036091 -0.216936
v -0.017101 0.036091 -0.209301
v -0.005939 0.036091 -0.205238
v 0.005939 0.036091 -0.205238
v 0.017101 0.036091 -0.209301
v 0.026200 0.036091 -0.216936
v 0.032139 0.036091 -0.227223
v 0.034202 0.036091 -0.238921
v -0.000000 -0.038407 -0.238921
v 0.000000 0.038407 -0.238921
vt 0.291885 0.419085
vt 0.299190 0.432654
vt 0.256117 0.444413
vt 0.281011 0.408746
vt 0.267593 0.402722
vt 0.253116 0.401431
vt 0.239039 0.404877
vt 0.226787 0.412706
vt 0.217621 0.424190
vt 0.212611 0.438271
vt 0.460805 0.185527
vt 0.475471 0.185251
vt 0.467510 0.227251
vt 0.447307 0.190552
vt 0.436341 0.199606
vt 0.428982 0.211673
vt 0.425977 0.225459
vt 0.427671 0.239509
vt 0.433952 0.252293
vt 0.444223 0.262333
vt 0.457427 0.268329
vt 0.471990 0.269236
vt 0.322582 0.393682
vt 0.337769 0.418003
vt 0.301289 0.376300
vt 0.276422 0.366395
vt 0.250122 0.364602
vt 0.224699 0.370927
vt 0.202382 0.384772
vt 0.185106 0.405053
vt 0.174514 0.430409
vt 0.452905 0.149099
vt 0.480127 0.146995
vt 0.428513 0.159209
vt 0.408795 0.176145
vt 0.395455 0.198312
vt 0.389816 0.223629
vt 0.392600 0.249631
vt 0.403758 0.273693
vt 0.422515 0.293299
vt 0.447550 0.306277
vt 0.477451 0.310832
vt 0.344709 0.373149
vt 0.366774 0.404224
vt 0.315987 0.350754
vt 0.282667 0.338084
vt 0.247535 0.336012
vt 0.213627 0.344524
vt 0.183832 0.362768
vt 0.160427 0.389217
vt 0.144853 0.422374
vt 0.445499 0.120850
vt 0.481791 0.116352
vt 0.413288 0.134987
vt 0.387046 0.157864
vt 0.369052 0.187710
vt 0.361213 0.221883
vt 0.364609 0.257148
vt 0.379219 0.290012
vt 0.403933 0.317117
vt 0.436776 0.335813
vt 0.475801 0.344596
vt 0.353047 0.364985
vt 0.377706 0.398199
vt 0.321553 0.340781
vt 0.285007 0.327066
vt 0.246483 0.324894
vt 0.209323 0.334273
vt 0.176704 0.354208
vt 0.151059 0.382917
vt 0.133476 0.418597
vt 0.442394 0.110014
vt 0.481744 0.104353
vt 0.407311 0.125615
vt 0.378549 0.150733
vt 0.358728 0.183521
vt 0.349986 0.221130
vt 0.353589 0.260011
vt 0.369503 0.296306
vt 0.396500 0.326305
vt 0.432223 0.347120
vt 0.474359 0.357640
vt 0.359938 0.358101
vt 0.386432 0.392814
vt 0.326178 0.332402
vt 0.286947 0.317809
vt 0.245582 0.315561
vt 0.205711 0.325665
vt 0.170740 0.347029
vt 0.143284 0.377600
vt 0.124277 0.415030
vt 0.439719 0.100990
vt 0.481208 0.094483
vt 0.402286 0.117765
vt 0.371408 0.144731
vt 0.350033 0.179977
vt 0.340522 0.220474
vt 0.344281 0.262392
vt 0.361293 0.301579
vt 0.390200 0.333995
vt 0.428303 0.356531
vt 0.472646 0.368295
vt 0.366030 0.351952
vt 0.393658 0.387652
vt 0.330292 0.324914
vt 0.288663 0.309537
vt 0.244769 0.307218
vt 0.202477 0.317987
vt 0.165429 0.340627
vt 0.136414 0.372854
vt 0.116539 0.411408
vt 0.437316 0.092993
vt 0.480160 0.085988
vt 0.397794 0.110763
vt 0.365024 0.139359
vt 0.342246 0.176796
vt 0.332043 0.219866
vt 0.335931 0.264513
vt 0.353920 0.306284
vt 0.384541 0.340857
vt 0.424763 0.364875
vt 0.470533 0.377400
vt 0.408046 0.029290
vt 0.385084 0.081827
vt 0.376706 0.075462
vt 0.397791 0.026280
vt 0.347707 0.116425
vt 0.342335 0.108673
vt 0.304666 0.136926
vt 0.302025 0.128396
vt 0.259405 0.143448
vt 0.259430 0.134809
vt 0.215405 0.136502
vt 0.217916 0.128426
vt 0.176043 0.117328
vt 0.180715 0.110406
vt 0.143918 0.088196
vt 0.150271 0.082790
vt 0.120435 0.051881
vt 0.127752 0.047543
vt 0.045609 0.091066
vt 0.091258 0.093564
vt 0.088866 0.102415
vt 0.045480 0.099394
vt 0.133501 0.114227
vt 0.128405 0.121436
vt 0.165852 0.146529
vt 0.158863 0.151591
vt 0.185792 0.186654
vt 0.177700 0.189187
vt 0.191973 0.230349
vt 0.183601 0.230205
vt 0.184254 0.273299
vt 0.176414 0.270583
vt 0.163832 0.311466
vt 0.157239 0.306501
vt 0.132960 0.341477
vt 0.128151 0.334786
vt 0.094763 0.361125
vt 0.091988 0.353342
vt 0.052789 0.370086
vt 0.051351 0.361752
vt 0.356392 0.061014
vt 0.372632 0.020626
vt 0.328891 0.090090
vt 0.295318 0.107669
vt 0.259297 0.113726
vt 0.223961 0.108651
vt 0.192129 0.093407
vt 0.166035 0.069526
vt 0.147109 0.038332
vt 0.083076 0.123550
vt 0.046289 0.120420
vt 0.116218 0.138959
vt 0.142003 0.163954
vt 0.158096 0.195415
vt 0.163269 0.229927
vt 0.157340 0.264012
vt 0.141159 0.294419
vt 0.116407 0.318412
vt 0.085283 0.334090
vt 0.049698 0.340484
vt 0.328281 0.043107
vt 0.338639 0.014536
vt 0.309422 0.065128
vt 0.285240 0.079004
vt 0.258636 0.084186
vt 0.232209 0.080774
vt 0.208283 0.069407
vt 0.188836 0.051137
vt 0.175568 0.027208
vt 0.075350 0.152444
vt 0.048330 0.150268
vt 0.099719 0.163296
vt 0.118878 0.181306
vt 0.130989 0.204286
vt 0.135015 0.229701
vt 0.130738 0.254934
vt 0.118698 0.277500
vt 0.100077 0.295266
vt 0.076479 0.306559
vt 0.049676 0.310108
vt 0.293245 0.023319
vt 0.297952 0.008544
vt 0.283912 0.035327
vt 0.271303 0.043321
vt 0.256954 0.046585
vt 0.242455 0.044970
vt 0.229291 0.038704
vt 0.218819 0.028455
vt 0.212188 0.015179
vt 0.066415 0.188626
vt 0.051929 0.187868
vt 0.079645 0.194101
vt 0.090169 0.203568
vt 0.096929 0.215874
vt 0.099251 0.229655
vt 0.096942 0.243416
vt 0.090250 0.255716
vt 0.079852 0.265238
vt 0.066728 0.270927
vt 0.052203 0.271984
vt 0.254049 0.003594
vt 0.057920 0.229793
vn 0.139126 -0.983370 -0.116741
vn 0.170663 -0.983370 -0.062116
vn -0.000000 -1.000000 -0.000000
vn 0.090808 -0.983370 -0.157284
vn 0.031537 -0.983370 -0.178857
vn -0.031537 -0.983370 -0.178857
vn -0.090808 -0.983370 -0.157284
vn -0.139126 -0.983370 -0.116741
vn -0.170663 -0.983370 -0.062116
vn -0.181616 -0.983370 -0.000000
vn -0.170663 -0.983370 0.062116
vn -0.139126 -0.983370 0.116741
vn -0.090808 -0.983370 0.157284
vn -0.031537 -0.983370 0.178857
vn 0.031537 -0.983370 0.178857
vn 0.090808 -0.983370 0.157284
vn 0.139126 -0.983370 0.116741
vn 0.170663 -0.983370 0.062116
vn 0.181616 -0.983370 0.000000
vn 0.259197 -0.941018 -0.217492
vn 0.317952 -0.941018 -0.115725
vn 0.169179 -0.941018 -0.293026
vn 0.058755 -0.941018 -0.333217
vn -0.058755 -0.941018 -0.333217
vn -0.169179 -0.941018 -0.293026
vn -0.259197 -0.941018 -0.217492
vn -0.317952 -0.941018 -0.115725
vn -0.338358 -0.941018 -0.000000
vn -0.317952 -0.941018 0.115725
vn -0.259197 -0.941018 0.217492
vn -0.169179 -0.941018 0.293026
vn -0.058755 -0.941018 0.333217
vn 0.058755 -0.941018 0.333217
vn 0.169179 -0.941018 0.293026
vn 0.259197 -0.941018 0.217492
vn 0.317952 -0.941018 0.115725
vn 0.338358 -0.941018 0.000000
vn 0.382284 -0.866581 -0.320774
vn 0.468941 -0.866581 -0.170680
vn 0.249518 -0.866581 -0.432178
vn 0.086657 -0.866581 -0.491454
vn -0.086657 -0.866581 -0.491455
vn -0.249518 -0.866581 -0.432178
vn -0.382284 -0.866581 -0.320774
vn -0.468941 -0.866581 -0.170680
vn -0.499036 -0.866581 -0.000000
vn -0.468941 -0.866581 0.170680
vn -0.382284 -0.866581 0.320774
vn -0.249518 -0.866581 0.432178
vn -0.086657 -0.866581 0.491455
vn 0.086657 -0.866581 0.491455
vn 0.249518 -0.866581 0.432178
vn 0.382284 -0.866581 0.320774
vn 0.468941 -0.866581 0.170680
vn 0.499036 -0.866581 0.000000
vn 0.563703 -0.677131 -0.473003
vn 0.691484 -0.677132 -0.251679
vn 0.367931 -0.677132 -0.637275
vn 0.127781 -0.677132 -0.724683
vn -0.127781 -0.677132 -0.724683
vn -0.367931 -0.677132 -0.637275
vn -0.563703 -0.677132 -0.473003
vn -0.691484 -0.677132 -0.251680
vn -0.735862 -0.677132 -0.000000
vn -0.691484 -0.677131 0.251679
vn -0.563703 -0.677131 0.473003
vn -0.367931 -0.677131 0.637275
vn -0.127781 -0.677132 0.724683
vn 0.127781 -0.677132 0.724683
vn 0.367931 -0.677132 0.637275
vn 0.563703 -0.677132 0.473003
vn 0.691484 -0.677132 0.251680
vn 0.735862 -0.677132 0.000000
vn 0.699883 -0.406542 -0.587271
vn 0.858533 -0.406543 -0.312481
vn 0.456816 -0.406542 -0.791228
vn 0.158651 -0.406542 -0.899752
vn -0.158650 -0.406542 -0.899752
vn -0.456816 -0.406542 -0.791229
vn -0.699883 -0.406542 -0.587271
vn -0.858533 -0.406542 -0.312481
vn -0.913632 -0.406543 -0.000000
vn -0.858533 -0.406543 0.312480
vn -0.699883 -0.406542 0.587271
vn -0.456816 -0.406542 0.791228
vn -0.158651 -0.406542 0.899752
vn 0.158651 -0.406543 0.899752
vn 0.456816 -0.406543 0.791228
vn 0.699883 -0.406543 0.587271
vn 0.858533 -0.406543 0.312480
vn 0.913632 -0.406543 0.000000
vn 0.766045 -0.000000 -0.642787
vn 0.939693 0.000000 -0.342019
vn 0.500000 0.000000 -0.866025
vn 0.173648 0.000000 -0.984808
vn -0.173648 0.000000 -0.984808
vn -0.500000 0.000000 -0.866026
vn -0.766045 0.000000 -0.642788
vn -0.939692 -0.000000 -0.342020
vn -1.000000 0.000000 -0.000000
vn -0.939693 -0.000000 0.342020
vn -0.766045 -0.000000 0.642788
vn -0.500000 0.000000 0.866025
vn -0.173649 0.000000 0.984808
vn 0.173648 0.000000 0.984808
vn 0.500000 -0.000000 0.866026
vn 0.766045 0.000000 0.642788
vn 0.939693 -0.000000 0.342020
vn 1.000000 -0.000000 0.000000
vn 0.636800 0.555849 -0.534338
vn 0.781151 0.555849 -0.284316
vn 0.415642 0.555849 -0.719912
vn 0.144351 0.555849 -0.818654
vn -0.144351 0.555849 -0.818654
vn -0.415642 0.555849 -0.719913
vn -0.636800 0.555849 -0.534339
vn -0.781151 0.555849 -0.284316
vn -0.831283 0.555849 -0.000000
vn -0.781151 0.555849 0.284315
vn -0.636800 0.555849 0.534339
vn -0.415642 0.555849 0.719912
vn -0.144351 0.555849 0.818654
vn 0.144351 0.555849 0.818654
vn 0.415641 0.555849 0.719912
vn 0.636800 0.555849 0.534339
vn 0.781151 0.555849 0.284316
vn 0.831283 0.555849 0.000000
vn 0.447518 0.811615 -0.375512
vn 0.548962 0.811615 -0.199806
vn 0.292097 0.811615 -0.505926
vn 0.101444 0.811615 -0.575318
vn -0.101444 0.811615 -0.575318
vn -0.292097 0.811615 -0.505926
vn -0.447518 0.811615 -0.375512
vn -0.548962 0.811615 -0.199806
vn -0.584193 0.811615 -0.000000
vn -0.548962 0.811615 0.199806
vn -0.447518 0.811615 0.375512
vn -0.292097 0.811615 0.505926
vn -0.101444 0.811615 0.575318
vn 0.101444 0.811615 0.575318
vn 0.292097 0.811615 0.505926
vn 0.447518 0.811615 0.375512
vn 0.548962 0.811615 0.199806
vn 0.584193 0.811615 0.000000
vn 0.259197 0.941018 -0.217492
vn 0.317952 0.941018 -0.115725
vn 0.169179 0.941018 -0.293026
vn 0.058755 0.941018 -0.333217
vn -0.058755 0.941018 -0.333217
vn -0.169179 0.941018 -0.293026
vn -0.259197 0.941018 -0.217492
vn -0.317952 0.941018 -0.115725
vn -0.338358 0.941018 -0.000000
vn -0.317952 0.941018 0.115725
vn -0.259197 0.941018 0.217492
vn -0.169179 0.941018 0.293026
vn -0.058755 0.941018 0.333217
vn 0.058755 0.941018 0.333217
vn 0.169179 0.941018 0.293026
vn 0.259197 0.941018 0.217492
vn 0.317952 0.941018 0.115725
vn 0.338358 0.941018 0.000000
vn 0.139126 0.983370 -0.116741
vn 0.170663 0.983370 -0.062116
vn 0.090808 0.983370 -0.157284
vn 0.031537 0.983370 -0.178857
vn -0.031537 0.983369 -0.178857
vn -0.090808 0.983370 -0.157284
vn -0.139126 0.983370 -0.116741
vn -0.170663 0.983370 -0.062116
vn -0.181616 0.983370 -0.000000
vn -0.170663 0.983370 0.062116
vn -0.139126 0.983370 0.116741
vn -0.090808 0.983370 0.157284
vn -0.031537 0.983370 0.178857
vn 0.031537 0.983369 0.178857
vn 0.090808 0.983370 0.157284
vn 0.139126 0.983370 0.116741
vn 0.170663 0.983370 0.062116
vn 0.181616 0.983370 -0.000000
vn -0.000000 1.000000 0.000000
s 1
g polySurface5
usemtl initialShadingGroup
f 2/1/1 1/2/2 181/3/3
f 3/4/4 2/1/1 181/3/3
f 4/5/5 3/4/4 181/3/3
f 5/6/6 4/5/5 181/3/3
f 6/7/7 5/6/6 181/3/3
f 7/8/8 6/7/7 181/3/3
f 8/9/9 7/8/8 181/3/3
f 9/10/10 8/9/9 181/3/3
f 10/11/11 9/12/10 181/13/3
f 11/14/12 10/11/11 181/13/3
f 12/15/13 11/14/12 181/13/3
f 13/16/14 12/15/13 181/13/3
f 14/17/15 13/16/14 181/13/3
f 15/18/16 14/17/15 181/13/3
f 16/19/17 15/18/16 181/13/3
f 17/20/18 16/19/17 181/13/3
f 18/21/19 17/20/18 181/13/3
f 1/22/2 18/21/19 181/13/3
f 2/1/1 20/23/20 19/24/21 1/2/2
f 3/4/4 21/25/22 20/23/20 2/1/1
f 4/5/5 22/26/23 21/25/22 3/4/4
f 5/6/6 23/27/24 22/26/23 4/5/5
f 6/7/7 24/28/25 23/27/24 5/6/6
f 7/8/8 25/29/26 24/28/25 6/7/7
f 8/9/9 26/30/27 25/29/26 7/8/8
f 9/10/10 27/31/28 26/30/27 8/9/9
f 10/11/11 28/32/29 27/33/28 9/12/10
f 11/14/12 29/34/30 28/32/29 10/11/11
f 12/15/13 30/35/31 29/34/30 11/14/12
f 13/16/14 31/36/32 30/35/31 12/15/13
f 14/17/15 32/37/33 31/36/32 13/16/14
f 15/18/16 33/38/34 32/37/33 14/17/15
f 16/19/17 34/39/35 33/38/34 15/18/16
f 17/20/18 35/40/36 34/39/35 16/19/17
f 18/21/19 36/41/37 35/40/36 17/20/18
f 1/22/2 19/42/21 36/41/37 18/21/19
f 20/23/20 38/43/38 37/44/39 19/24/21
f 21/25/22 39/45/40 38/43/38 20/23/20
f 22/26/23 40/46/41 39/45/40 21/25/22
f 23/27/24 41/47/42 40/46/41 22/26/23
f 24/28/25 42/48/43 41/47/42 23/27/24
f 25/29/26 43/49/44 42/48/43 24/28/25
f 26/30/27 44/50/45 43/49/44 25/29/26
f 27/31/28 45/51/46 44/50/45 26/30/27
f 28/32/29 46/52/47 45/53/46 27/33/28
f 29/34/30 47/54/48 46/52/47 28/32/29
f 30/35/31 48/55/49 47/54/48 29/34/30
f 31/36/32 49/56/50 48/55/49 30/35/31
f 32/37/33 50/57/51 49/56/50 31/36/32
f 33/38/34 51/58/52 50/57/51 32/37/33
f 34/39/35 52/59/53 51/58/52 33/38/34
f 35/40/36 53/60/54 52/59/53 34/39/35
f 36/41/37 54/61/55 53/60/54 35/40/36
f 19/42/21 37/62/39 54/61/55 36/41/37
f 37/44/39 38/43/38 56/63/56 55/64/57
f 38/43/38 39/45/40 57/65/58 56/63/56
f 39/45/40 40/46/41 58/66/59 57/65/58
f 40/46/41 41/47/42 59/67/60 58/66/59
f 41/47/42 42/48/43 60/68/61 59/67/60
f 42/48/43 43/49/44 61/69/62 60/68/61
f 43/49/44 44/50/45 62/70/63 61/69/62
f 44/50/45 45/51/46 63/71/64 62/70/63
f 45/53/46 46/52/47 64/72/65 63/73/64
f 46/52/47 47/54/48 65/74/66 64/72/65
f 47/54/48 48/55/49 66/75/67 65/74/66
f 48/55/49 49/56/50 67/76/68 66/75/67
f 49/56/50 50/57/51 68/77/69 67/76/68
f 50/57/51 51/58/52 69/78/70 68/77/69
f 51/58/52 52/59/53 70/79/71 69/78/70
f 52/59/53 53/60/54 71/80/72 70/79/71
f 53/60/54 54/61/55 72/81/73 71/80/72
f 54/61/55 37/62/39 55/82/57 72/81/73
f 55/64/57 56/63/56 74/83/74 73/84/75
f 56/63/56 57/65/58 75/85/76 74/83/74
f 57/65/58 58/66/59 76/86/77 75/85/76
f 58/66/59 59/67/60 77/87/78 76/86/77
f 59/67/60 60/68/61 78/88/79 77/87/78
f 60/68/61 61/69/62 79/89/80 78/88/79
f 61/69/62 62/70/63 80/90/81 79/89/80
f 62/70/63 63/71/64 81/91/82 80/90/81
f 63/73/64 64/72/65 82/92/83 81/93/82
f 64/72/65 65/74/66 83/94/84 82/92/83
f 65/74/66 66/75/67 84/95/85 83/94/84
f 66/75/67 67/76/68 85/96/86 84/95/85
f 67/76/68 68/77/69 86/97/87 85/96/86
f 68/77/69 69/78/70 87/98/88 86/97/87
f 69/78/70 70/79/71 88/99/89 87/98/88
f 70/79/71 71/80/72 89/100/90 88/99/89
f 71/80/72 72/81/73 90/101/91 89/100/90
f 72/81/73 55/82/57 73/102/75 90/101/91
f 73/84/75 74/83/74 92/103/92 91/104/93
f 74/83/74 75/85/76 93/105/94 92/103/92
f 75/85/76 76/86/77 94/106/95 93/105/94
f 76/86/77 77/87/78 95/107/96 94/106/95
f 77/87/78 78/88/79 96/108/97 95/107/96
f 78/88/79 79/89/80 97/109/98 96/108/97
f 79/89/80 80/90/81 98/110/99 97/109/98
f 80/90/81 81/91/82 99/111/100 98/110/99
f 81/93/82 82/92/83 100/112/101 99/113/100
f 82/92/83 83/94/84 101/114/102 100/112/101
f 83/94/84 84/95/85 102/115/103 101/114/102
f 84/95/85 85/96/86 103/116/104 102/115/103
f 85/96/86 86/97/87 104/117/105 103/116/104
f 86/97/87 87/98/88 105/118/106 104/117/105
f 87/98/88 88/99/89 106/119/107 105/118/106
f 88/99/89 89/100/90 107/120/108 106/119/107
f 89/100/90 90/101/91 108/121/109 107/120/108
f 90/101/91 73/102/75 91/122/93 108/121/109
f 91/123/93 92/124/92 110/125/110 109/126/111
f 92/124/92 93/127/94 111/128/112 110/125/110
f 93/127/94 94/129/95 112/130/113 111/128/112
f 94/129/95 95/131/96 113/132/114 112/130/113
f 95/131/96 96/133/97 114/134/115 113/132/114
f 96/133/97 97/135/98 115/136/116 114/134/115
f 97/135/98 98/137/99 116/138/117 115/136/116
f 98/137/99 99/139/100 117/140/118 116/138/117
f 99/141/100 100/142/101 118/143/119 117/144/118
f 100/142/101 101/145/102 119/146/120 118/143/119
f 101/145/102 102/147/103 120/148/121 119/146/120
f 102/147/103 103/149/104 121/150/122 120/148/121
f 103/149/104 104/151/105 122/152/123 121/150/122
f 104/151/105 105/153/106 123/154/124 122/152/123
f 105/153/106 106/155/107 124/156/125 123/154/124
f 106/155/107 107/157/108 125/158/126 124/156/125
f 107/157/108 108/159/109 126/160/127 125/158/126
f 108/159/109 91/161/93 109/162/111 126/160/127
f 110/125/110 128/163/128 127/164/129 109/126/111
f 111/128/112 129/165/130 128/163/128 110/125/110
f 112/130/113 130/166/131 129/165/130 111/128/112
f 113/132/114 131/167/132 130/166/131 112/130/113
f 114/134/115 132/168/133 131/167/132 113/132/114
f 115/136/116 133/169/134 132/168/133 114/134/115
f 116/138/117 134/170/135 133/169/134 115/136/116
f 117/140/118 135/171/136 134/170/135 116/138/117
f 118/143/119 136/172/137 135/173/136 117/144/118
f 119/146/120 137/174/138 136/172/137 118/143/119
f 120/148/121 138/175/139 137/174/138 119/146/120
f 121/150/122 139/176/140 138/175/139 120/148/121
f 122/152/123 140/177/141 139/176/140 121/150/122
f 123/154/124 141/178/142 140/177/141 122/152/123
f 124/156/125 142/179/143 141/178/142 123/154/124
f 125/158/126 143/180/144 142/179/143 124/156/125
f 126/160/127 144/181/145 143/180/144 125/158/126
f 109/162/111 127/182/129 144/181/145 126/160/127
f 128/163/128 146/183/146 145/184/147 127/164/129
f 129/165/130 147/185/148 146/183/146 128/163/128
f 130/166/131 148/186/149 147/185/148 129/165/130
f 131/167/132 149/187/150 148/186/149 130/166/131
f 132/168/133 150/188/151 149/187/150 131/167/132
f 133/169/134 151/189/152 150/188/151 132/168/133
f 134/170/135 152/190/153 151/189/152 133/169/134
f 135/171/136 153/191/154 152/190/153 134/170/135
f 136/172/137 154/192/155 153/193/154 135/173/136
f 137/174/138 155/194/156 154/192/155 136/172/137
f 138/175/139 156/195/157 155/194/156 137/174/138
f 139/176/140 157/196/158 156/195/157 138/175/139
f 140/177/141 158/197/159 157/196/158 139/176/140
f 141/178/142 159/198/160 158/197/159 140/177/141
f 142/179/143 160/199/161 159/198/160 141/178/142
f 143/180/144 161/200/162 160/199/161 142/179/143
f 144/181/145 162/201/163 161/200/162 143/180/144
f 127/182/129 145/202/147 162/201/163 144/181/145
f 146/183/146 164/203/164 163/204/165 145/184/147
f 147/185/148 165/205/166 164/203/164 146/183/146
f 148/186/149 166/206/167 165/205/166 147/185/148
f 149/187/150 167/207/168 166/206/167 148/186/149
f 150/188/151 168/208/169 167/207/168 149/187/150
f 151/189/152 169/209/170 168/208/169 150/188/151
f 152/190/153 170/210/171 169/209/170 151/189/152
f 153/191/154 171/211/172 170/210/171 152/190/153
f 154/192/155 172/212/173 171/213/172 153/193/154
f 155/194/156 173/214/174 172/212/173 154/192/155
f 156/195/157 174/215/175 173/214/174 155/194/156
f 157/196/158 175/216/176 174/215/175 156/195/157
f 158/197/159 176/217/177 175/216/176 157/196/158
f 159/198/160 177/218/178 176/217/177 158/197/159
f 160/199/161 178/219/179 177/218/178 159/198/160
f 161/200/162 179/220/180 178/219/179 160/199/161
f 162/201/163 180/221/181 179/220/180 161/200/162
f 145/202/147 163/222/165 180/221/181 162/201/163
f 164/203/164 182/223/182 163/204/165
f 165/205/166 182/223/182 164/203/164
f 166/206/167 182/223/182 165/205/166
f 167/207/168 182/223/182 166/206/167
f 168/208/169 182/223/182 167/207/168
f 169/209/170 182/223/182 168/208/169
f 170/210/171 182/223/182 169/209/170
f 171/211/172 182/223/182 170/210/171
f 172/212/173 182/224/182 171/213/172
f 173/214/174 182/224/182 172/212/173
f 174/215/175 182/224/182 173/214/174
f 175/216/176 182/224/182 174/215/175
f 176/217/177 182/224/182 175/216/176
f 177/218/178 182/224/182 176/217/177
f 178/219/179 182/224/182 177/218/178
f 179/220/180 182/224/182 178/219/179
f 180/221/181 182/224/182 179/220/180
f 163/222/165 182/224/182 180/221/181
