# This file uses centimeters as units for non-parametric coordinates.

mtllib smartie 1.mtl
g default
v 0.032139 -0.036091 -0.709355
v 0.026200 -0.036091 -0.719642
v 0.017101 -0.036091 -0.727277
v 0.005939 -0.036091 -0.731339
v -0.005939 -0.036091 -0.731339
v -0.017101 -0.036091 -0.727277
v -0.026200 -0.036091 -0.719642
v -0.032139 -0.036091 -0.709355
v -0.034202 -0.036091 -0.697657
v -0.032139 -0.036091 -0.685959
v -0.026200 -0.036091 -0.675672
v -0.017101 -0.036091 -0.668037
v -0.005939 -0.036091 -0.663975
v 0.005939 -0.036091 -0.663975
v 0.017101 -0.036091 -0.668037
v 0.026200 -0.036091 -0.675672
v 0.032139 -0.036091 -0.685959
v 0.034202 -0.036091 -0.697657
v 0.060402 -0.029421 -0.719642
v 0.049240 -0.029421 -0.738975
v 0.032139 -0.029421 -0.753324
v 0.011162 -0.029421 -0.760959
v -0.011162 -0.029421 -0.760959
v -0.032139 -0.029421 -0.753324
v -0.049240 -0.029421 -0.738975
v -0.060402 -0.029421 -0.719642
v -0.064279 -0.029421 -0.697657
v -0.060402 -0.029421 -0.675672
v -0.049240 -0.029421 -0.656339
v -0.032139 -0.029421 -0.641990
v -0.011162 -0.029421 -0.634355
v 0.011162 -0.029421 -0.634355
v 0.032139 -0.029421 -0.641990
v 0.049240 -0.029421 -0.656339
v 0.060402 -0.029421 -0.675672
v 0.064279 -0.029421 -0.697657
v 0.081380 -0.019203 -0.727277
v 0.066341 -0.019203 -0.753324
v 0.043301 -0.019203 -0.772657
v 0.015038 -0.019203 -0.782944
v -0.015038 -0.019203 -0.782944
v -0.043301 -0.019203 -0.772657
v -0.066341 -0.019203 -0.753324
v -0.081380 -0.019203 -0.727277
v -0.086603 -0.019203 -0.697657
v -0.081380 -0.019203 -0.668037
v -0.066341 -0.019203 -0.641990
v -0.043301 -0.019203 -0.622657
v -0.015038 -0.019203 -0.612370
v 0.015038 -0.019203 -0.612370
v 0.043301 -0.019203 -0.622657
v 0.066341 -0.019203 -0.641990
v 0.081380 -0.019203 -0.668037
v 0.086603 -0.019203 -0.697657
v 0.088302 -0.013136 -0.729796
v 0.071985 -0.013136 -0.758059
v 0.046985 -0.013136 -0.779037
v 0.016318 -0.013136 -0.790199
v -0.016318 -0.013136 -0.790199
v -0.046985 -0.013136 -0.779037
v -0.071985 -0.013136 -0.758059
v -0.088302 -0.013136 -0.729796
v -0.093969 -0.013136 -0.697657
v -0.088302 -0.013136 -0.665518
v -0.071985 -0.013136 -0.637255
v -0.046985 -0.013136 -0.616277
v -0.016318 -0.013136 -0.605115
v 0.016318 -0.013136 -0.605115
v 0.046985 -0.013136 -0.616277
v 0.071985 -0.013136 -0.637255
v 0.088302 -0.013136 -0.665518
v 0.093969 -0.013136 -0.697657
v 0.092542 -0.006669 -0.731339
v 0.075441 -0.006669 -0.760959
v 0.049240 -0.006669 -0.782944
v 0.017101 -0.006669 -0.794642
v -0.017101 -0.006669 -0.794642
v -0.049240 -0.006669 -0.782944
v -0.075441 -0.006669 -0.760959
v -0.092542 -0.006669 -0.731339
v -0.098481 -0.006669 -0.697657
v -0.092542 -0.006669 -0.663975
v -0.075441 -0.006669 -0.634355
v -0.049240 -0.006669 -0.612370
v -0.017101 -0.006669 -0.600672
v 0.017101 -0.006669 -0.600672
v 0.049240 -0.006669 -0.612370
v 0.075441 -0.006669 -0.634355
v 0.092542 -0.006669 -0.663975
v 0.098481 -0.006669 -0.697657
v 0.093969 0.000000 -0.731859
v 0.076604 0.000000 -0.761936
v 0.050000 -0.000000 -0.784259
v 0.017365 -0.000000 -0.796138
v -0.017365 -0.000000 -0.796138
v -0.050000 0.000000 -0.784260
v -0.076604 0.000000 -0.761936
v -0.093969 0.000000 -0.731859
v -0.100000 0.000000 -0.697657
v -0.093969 -0.000000 -0.663455
v -0.076604 0.000000 -0.633378
v -0.050000 0.000000 -0.611054
v -0.017365 0.000000 -0.599176
v 0.017365 0.000000 -0.599176
v 0.050000 0.000000 -0.611054
v 0.076604 0.000000 -0.633378
v 0.093969 0.000000 -0.663455
v 0.100000 0.000000 -0.697657
v 0.092542 0.006669 -0.731339
v 0.075441 0.006669 -0.760959
v 0.049240 0.006669 -0.782944
v 0.017101 0.006669 -0.794642
v -0.017101 0.006669 -0.794642
v -0.049240 0.006669 -0.782944
v -0.075441 0.006669 -0.760959
v -0.092542 0.006669 -0.731339
v -0.098481 0.006669 -0.697657
v -0.092542 0.006669 -0.663975
v -0.075441 0.006669 -0.634355
v -0.049240 0.006669 -0.612370
v -0.017101 0.006669 -0.600672
v 0.017101 0.006669 -0.600672
v 0.049240 0.006669 -0.612370
v 0.075441 0.006669 -0.634355
v 0.092542 0.006669 -0.663975
v 0.098481 0.006669 -0.697657
v 0.081380 0.019203 -0.727277
v 0.066341 0.019203 -0.753324
v 0.043301 0.019203 -0.772657
v 0.015038 0.019203 -0.782944
v -0.015038 0.019203 -0.782944
v -0.043301 0.019203 -0.772657
v -0.066341 0.019203 -0.753324
v -0.081380 0.019203 -0.727277
v -0.086603 0.019203 -0.697657
v -0.081380 0.019203 -0.668037
v -0.066341 0.019203 -0.641990
v -0.043301 0.019203 -0.622657
v -0.015038 0.019203 -0.612370
v 0.015038 0.019203 -0.612370
v 0.043301 0.019203 -0.622657
v 0.066341 0.019203 -0.641990
v 0.081380 0.019203 -0.668037
v 0.086603 0.019203 -0.697657
v 0.060402 0.029421 -0.719642
v 0.049240 0.029421 -0.738975
v 0.032139 0.029421 -0.753324
v 0.011162 0.029421 -0.760959
v -0.011162 0.029421 -0.760959
v -0.032139 0.029421 -0.753324
v -0.049240 0.029421 -0.738975
v -0.060402 0.029421 -0.719642
v -0.064279 0.029421 -0.697657
v -0.060402 0.029421 -0.675672
v -0.049240 0.029421 -0.656339
v -0.032139 0.029421 -0.641990
v -0.011162 0.029421 -0.634355
v 0.011162 0.029421 -0.634355
v 0.032139 0.029421 -0.641990
v 0.049240 0.029421 -0.656339
v 0.060402 0.029421 -0.675672
v 0.064279 0.029421 -0.697657
v 0.032139 0.036091 -0.709355
v 0.026200 0.036091 -0.719642
v 0.017101 0.036091 -0.727277
v 0.005939 0.036091 -0.731339
v -0.005939 0.036091 -0.731339
v -0.017101 0.036091 -0.727277
v -0.026200 0.036091 -0.719642
v -0.032139 0.036091 -0.709355
v -0.034202 0.036091 -0.697657
v -0.032139 0.036091 -0.685959
v -0.026200 0.036091 -0.675672
v -0.017101 0.036091 -0.668037
v -0.005939 0.036091 -0.663975
v 0.005939 0.036091 -0.663975
v 0.017101 0.036091 -0.668037
v 0.026200 0.036091 -0.675672
v 0.032139 0.036091 -0.685959
v 0.034202 0.036091 -0.697657
v 0.000000 -0.038407 -0.697657
v 0.000000 0.038407 -0.697657
vt 0.288884 0.937958
vt 0.296530 0.952160
vt 0.251446 0.964468
vt 0.277502 0.927136
vt 0.263458 0.920830
vt 0.248305 0.919479
vt 0.233570 0.923086
vt 0.220747 0.931280
vt 0.211153 0.943301
vt 0.205909 0.958039
vt 0.465691 0.693495
vt 0.481041 0.693205
vt 0.472709 0.737167
vt 0.451563 0.698755
vt 0.440085 0.708231
vt 0.432382 0.720861
vt 0.429236 0.735291
vt 0.431010 0.749997
vt 0.437584 0.763378
vt 0.448335 0.773887
vt 0.462154 0.780163
vt 0.477398 0.781112
vt 0.321014 0.911369
vt 0.336910 0.936825
vt 0.298727 0.893175
vt 0.272699 0.882807
vt 0.245171 0.880931
vt 0.218561 0.887551
vt 0.195203 0.902042
vt 0.177120 0.923270
vt 0.166033 0.949810
vt 0.457422 0.655366
vt 0.485915 0.653164
vt 0.431891 0.665948
vt 0.411253 0.683675
vt 0.397290 0.706876
vt 0.391387 0.733375
vt 0.394301 0.760591
vt 0.405980 0.785778
vt 0.425613 0.806298
vt 0.451817 0.819883
vt 0.483113 0.824650
vt 0.344174 0.889877
vt 0.367269 0.922402
vt 0.314111 0.866436
vt 0.279236 0.853174
vt 0.242463 0.851005
vt 0.206972 0.859915
vt 0.175786 0.879011
vt 0.151289 0.906695
vt 0.134988 0.941400
vt 0.449670 0.625798
vt 0.487656 0.621090
vt 0.415955 0.640595
vt 0.388488 0.664540
vt 0.369654 0.695780
vt 0.361449 0.731548
vt 0.365003 0.768460
vt 0.380295 0.802858
vt 0.406163 0.831228
vt 0.440540 0.850797
vt 0.481387 0.859990
vt 0.352902 0.881332
vt 0.378712 0.916096
vt 0.319937 0.855997
vt 0.281685 0.841642
vt 0.241362 0.839369
vt 0.202467 0.849185
vt 0.168325 0.870051
vt 0.141483 0.900100
vt 0.123079 0.937446
vt 0.446420 0.614456
vt 0.487608 0.608531
vt 0.409699 0.630785
vt 0.379594 0.657076
vt 0.358847 0.691395
vt 0.349697 0.730760
vt 0.353469 0.771456
vt 0.370126 0.809446
vt 0.398383 0.840845
vt 0.435774 0.862632
vt 0.479877 0.873643
vt 0.360114 0.874126
vt 0.387845 0.910459
vt 0.324778 0.847228
vt 0.283716 0.831953
vt 0.240419 0.829599
vt 0.198687 0.840175
vt 0.162083 0.862537
vt 0.133345 0.894536
vt 0.113451 0.933712
vt 0.443620 0.605011
vt 0.487046 0.598200
vt 0.404439 0.622570
vt 0.372120 0.650794
vt 0.349746 0.687686
vt 0.339791 0.730074
vt 0.343726 0.773948
vt 0.361532 0.814966
vt 0.391789 0.848895
vt 0.431671 0.872483
vt 0.478084 0.884795
vt 0.366491 0.867689
vt 0.395408 0.905057
vt 0.329084 0.839389
vt 0.285511 0.823294
vt 0.239568 0.820867
vt 0.195302 0.832139
vt 0.156523 0.855836
vt 0.126154 0.889568
vt 0.105351 0.929922
vt 0.441104 0.596640
vt 0.485949 0.589308
vt 0.399737 0.615240
vt 0.365438 0.645171
vt 0.341596 0.684356
vt 0.330917 0.729437
vt 0.334986 0.776169
vt 0.353815 0.819890
vt 0.385866 0.856077
vt 0.427966 0.881216
vt 0.475873 0.894326
vt 0.410468 0.529963
vt 0.386435 0.584953
vt 0.377665 0.578291
vt 0.399734 0.526813
vt 0.347313 0.621166
vt 0.341690 0.613052
vt 0.302262 0.642625
vt 0.299498 0.633696
vt 0.254887 0.649452
vt 0.254914 0.640409
vt 0.208833 0.642180
vt 0.211461 0.633728
vt 0.167633 0.622112
vt 0.172524 0.614867
vt 0.134009 0.591620
vt 0.140658 0.585961
vt 0.109429 0.553609
vt 0.117088 0.549069
vt 0.031109 0.594624
vt 0.078890 0.597238
vt 0.076386 0.606503
vt 0.030975 0.603341
vt 0.123105 0.618865
vt 0.117772 0.626411
vt 0.156966 0.652676
vt 0.149651 0.657975
vt 0.177838 0.694674
vt 0.169367 0.697325
vt 0.184307 0.740410
vt 0.175544 0.740259
vt 0.176228 0.785365
vt 0.168022 0.782522
vt 0.154853 0.825314
vt 0.147951 0.820117
vt 0.122538 0.856725
vt 0.117505 0.849723
vt 0.082559 0.877292
vt 0.079654 0.869145
vt 0.038624 0.886671
vt 0.037119 0.877948
vt 0.356403 0.563169
vt 0.373401 0.520895
vt 0.327617 0.593602
vt 0.292477 0.612002
vt 0.254775 0.618341
vt 0.217789 0.613029
vt 0.184470 0.597074
vt 0.157158 0.572078
vt 0.137349 0.539428
vt 0.070325 0.628624
vt 0.031821 0.625348
vt 0.105015 0.644752
vt 0.132004 0.670915
vt 0.148848 0.703845
vt 0.154263 0.739968
vt 0.148057 0.775645
vt 0.131120 0.807470
vt 0.105213 0.832584
vt 0.072635 0.848994
vt 0.035389 0.855686
vt 0.326980 0.544425
vt 0.337820 0.514521
vt 0.307240 0.567474
vt 0.281929 0.581998
vt 0.254083 0.587422
vt 0.226422 0.583851
vt 0.201379 0.571953
vt 0.181024 0.552831
vt 0.167136 0.527784
vt 0.062239 0.658867
vt 0.033957 0.656590
vt 0.087746 0.670226
vt 0.107800 0.689077
vt 0.120475 0.713129
vt 0.124690 0.739731
vt 0.120213 0.766142
vt 0.107611 0.789762
vt 0.088121 0.808357
vt 0.063421 0.820177
vt 0.035366 0.823892
vt 0.290307 0.523713
vt 0.295234 0.508249
vt 0.280538 0.536282
vt 0.267341 0.544649
vt 0.252322 0.548066
vt 0.237146 0.546375
vt 0.223367 0.539816
vt 0.212407 0.529089
vt 0.205466 0.515193
vt 0.052887 0.696738
vt 0.037724 0.695946
vt 0.066735 0.702469
vt 0.077750 0.712378
vt 0.084825 0.725259
vt 0.087256 0.739683
vt 0.084839 0.754087
vt 0.077835 0.766961
vt 0.066951 0.776927
vt 0.053214 0.782882
vt 0.038011 0.783989
vt 0.249281 0.503067
vt 0.043996 0.739828
vn 0.139126 -0.983370 -0.116741
vn 0.170664 -0.983370 -0.062116
vn -0.000000 -1.000000 -0.000000
vn 0.090808 -0.983370 -0.157284
vn 0.031537 -0.983369 -0.178857
vn -0.031537 -0.983370 -0.178857
vn -0.090808 -0.983370 -0.157284
vn -0.139126 -0.983370 -0.116741
vn -0.170664 -0.983370 -0.062116
vn -0.181616 -0.983370 -0.000000
vn -0.170663 -0.983370 0.062116
vn -0.139126 -0.983370 0.116741
vn -0.090808 -0.983370 0.157284
vn -0.031537 -0.983370 0.178857
vn 0.031537 -0.983370 0.178857
vn 0.090808 -0.983370 0.157284
vn 0.139126 -0.983370 0.116741
vn 0.170663 -0.983370 0.062116
vn 0.181616 -0.983370 0.000000
vn 0.259197 -0.941018 -0.217492
vn 0.317952 -0.941018 -0.115725
vn 0.169179 -0.941018 -0.293026
vn 0.058755 -0.941018 -0.333217
vn -0.058755 -0.941018 -0.333217
vn -0.169179 -0.941018 -0.293026
vn -0.259197 -0.941018 -0.217492
vn -0.317952 -0.941018 -0.115725
vn -0.338358 -0.941018 -0.000000
vn -0.317952 -0.941018 0.115725
vn -0.259197 -0.941018 0.217492
vn -0.169179 -0.941018 0.293026
vn -0.058755 -0.941018 0.333217
vn 0.058755 -0.941018 0.333217
vn 0.169179 -0.941018 0.293026
vn 0.259197 -0.941018 0.217492
vn 0.317952 -0.941018 0.115725
vn 0.338358 -0.941018 0.000000
vn 0.382284 -0.866581 -0.320774
vn 0.468941 -0.866581 -0.170680
vn 0.249518 -0.866581 -0.432178
vn 0.086657 -0.866581 -0.491455
vn -0.086657 -0.866581 -0.491454
vn -0.249518 -0.866581 -0.432178
vn -0.382284 -0.866581 -0.320774
vn -0.468940 -0.866581 -0.170680
vn -0.499036 -0.866581 -0.000000
vn -0.468941 -0.866581 0.170680
vn -0.382283 -0.866581 0.320774
vn -0.249518 -0.866581 0.432178
vn -0.086657 -0.866581 0.491455
vn 0.086657 -0.866581 0.491454
vn 0.249518 -0.866581 0.432178
vn 0.382283 -0.866581 0.320774
vn 0.468941 -0.866581 0.170681
vn 0.499037 -0.866581 0.000000
vn 0.563703 -0.677131 -0.473003
vn 0.691484 -0.677131 -0.251680
vn 0.367931 -0.677132 -0.637275
vn 0.127781 -0.677132 -0.724683
vn -0.127781 -0.677131 -0.724683
vn -0.367931 -0.677132 -0.637275
vn -0.563703 -0.677132 -0.473003
vn -0.691484 -0.677132 -0.251680
vn -0.735862 -0.677132 -0.000000
vn -0.691484 -0.677132 0.251679
vn -0.563703 -0.677132 0.473003
vn -0.367931 -0.677132 0.637275
vn -0.127782 -0.677132 0.724683
vn 0.127782 -0.677131 0.724683
vn 0.367931 -0.677132 0.637275
vn 0.563703 -0.677132 0.473003
vn 0.691484 -0.677132 0.251679
vn 0.735862 -0.677131 0.000000
vn 0.699883 -0.406541 -0.587271
vn 0.858533 -0.406543 -0.312480
vn 0.456817 -0.406541 -0.791229
vn 0.158651 -0.406541 -0.899752
vn -0.158650 -0.406542 -0.899752
vn -0.456816 -0.406543 -0.791228
vn -0.699882 -0.406543 -0.587271
vn -0.858533 -0.406543 -0.312480
vn -0.913632 -0.406543 -0.000000
vn -0.858533 -0.406543 0.312481
vn -0.699882 -0.406542 0.587272
vn -0.456817 -0.406541 0.791229
vn -0.158651 -0.406541 0.899752
vn 0.158651 -0.406542 0.899752
vn 0.456816 -0.406543 0.791228
vn 0.699882 -0.406544 0.587271
vn 0.858533 -0.406543 0.312480
vn 0.913632 -0.406543 0.000000
vn 0.766045 -0.000000 -0.642787
vn 0.939692 0.000000 -0.342020
vn 0.500001 0.000000 -0.866025
vn 0.173649 0.000000 -0.984808
vn -0.173648 0.000000 -0.984808
vn -0.499999 0.000000 -0.866026
vn -0.766044 -0.000000 -0.642788
vn -0.939692 0.000000 -0.342021
vn -1.000000 0.000000 -0.000000
vn -0.939693 0.000000 0.342020
vn -0.766044 -0.000000 0.642788
vn -0.500001 -0.000000 0.866025
vn -0.173649 0.000000 0.984808
vn 0.173648 0.000000 0.984808
vn 0.499999 -0.000000 0.866026
vn 0.766044 0.000000 0.642788
vn 0.939692 -0.000000 0.342021
vn 1.000000 -0.000000 0.000000
vn 0.636800 0.555849 -0.534339
vn 0.781151 0.555849 -0.284315
vn 0.415642 0.555848 -0.719913
vn 0.144351 0.555849 -0.818655
vn -0.144350 0.555849 -0.818654
vn -0.415641 0.555850 -0.719912
vn -0.636799 0.555850 -0.534339
vn -0.781151 0.555849 -0.284316
vn -0.831284 0.555849 -0.000000
vn -0.781151 0.555849 0.284316
vn -0.636800 0.555849 0.534339
vn -0.415642 0.555848 0.719913
vn -0.144351 0.555849 0.818655
vn 0.144350 0.555849 0.818654
vn 0.415642 0.555850 0.719912
vn 0.636799 0.555850 0.534338
vn 0.781150 0.555850 0.284316
vn 0.831283 0.555849 0.000000
vn 0.447518 0.811615 -0.375512
vn 0.548962 0.811615 -0.199806
vn 0.292097 0.811615 -0.505926
vn 0.101444 0.811615 -0.575318
vn -0.101444 0.811615 -0.575318
vn -0.292096 0.811615 -0.505926
vn -0.447517 0.811615 -0.375512
vn -0.548962 0.811615 -0.199806
vn -0.584194 0.811614 -0.000000
vn -0.548962 0.811615 0.199806
vn -0.447518 0.811615 0.375512
vn -0.292097 0.811615 0.505926
vn -0.101444 0.811615 0.575318
vn 0.101444 0.811615 0.575318
vn 0.292097 0.811615 0.505926
vn 0.447518 0.811615 0.375512
vn 0.548962 0.811615 0.199806
vn 0.584194 0.811614 0.000000
vn 0.259197 0.941018 -0.217492
vn 0.317952 0.941018 -0.115725
vn 0.169179 0.941018 -0.293026
vn 0.058755 0.941018 -0.333217
vn -0.058755 0.941018 -0.333217
vn -0.169179 0.941018 -0.293026
vn -0.259197 0.941018 -0.217492
vn -0.317952 0.941018 -0.115725
vn -0.338358 0.941018 -0.000000
vn -0.317952 0.941018 0.115725
vn -0.259197 0.941018 0.217492
vn -0.169179 0.941018 0.293026
vn -0.058755 0.941018 0.333217
vn 0.058755 0.941018 0.333217
vn 0.169179 0.941018 0.293026
vn 0.259197 0.941018 0.217492
vn 0.317952 0.941018 0.115725
vn 0.338358 0.941018 0.000000
vn 0.139126 0.983370 -0.116741
vn 0.170664 0.983370 -0.062116
vn 0.090808 0.983370 -0.157284
vn 0.031537 0.983369 -0.178857
vn -0.031537 0.983370 -0.178857
vn -0.090808 0.983370 -0.157284
vn -0.139126 0.983370 -0.116741
vn -0.170664 0.983369 -0.062116
vn -0.181616 0.983370 -0.000000
vn -0.170663 0.983370 0.062116
vn -0.139126 0.983370 0.116741
vn -0.090808 0.983370 0.157284
vn -0.031537 0.983370 0.178857
vn 0.031537 0.983370 0.178857
vn 0.090808 0.983370 0.157284
vn 0.139126 0.983369 0.116741
vn 0.170663 0.983370 0.062116
vn 0.181616 0.983370 -0.000000
vn -0.000000 1.000000 0.000000
s 1
g polySurface1
usemtl initialShadingGroup
f 2/1/1 1/2/2 181/3/3
f 3/4/4 2/1/1 181/3/3
f 4/5/5 3/4/4 181/3/3
f 5/6/6 4/5/5 181/3/3
f 6/7/7 5/6/6 181/3/3
f 7/8/8 6/7/7 181/3/3
f 8/9/9 7/8/8 181/3/3
f 9/10/10 8/9/9 181/3/3
f 10/11/11 9/12/10 181/13/3
f 11/14/12 10/11/11 181/13/3
f 12/15/13 11/14/12 181/13/3
f 13/16/14 12/15/13 181/13/3
f 14/17/15 13/16/14 181/13/3
f 15/18/16 14/17/15 181/13/3
f 16/19/17 15/18/16 181/13/3
f 17/20/18 16/19/17 181/13/3
f 18/21/19 17/20/18 181/13/3
f 1/22/2 18/21/19 181/13/3
f 2/1/1 20/23/20 19/24/21 1/2/2
f 3/4/4 21/25/22 20/23/20 2/1/1
f 4/5/5 22/26/23 21/25/22 3/4/4
f 5/6/6 23/27/24 22/26/23 4/5/5
f 6/7/7 24/28/25 23/27/24 5/6/6
f 7/8/8 25/29/26 24/28/25 6/7/7
f 8/9/9 26/30/27 25/29/26 7/8/8
f 9/10/10 27/31/28 26/30/27 8/9/9
f 10/11/11 28/32/29 27/33/28 9/12/10
f 11/14/12 29/34/30 28/32/29 10/11/11
f 12/15/13 30/35/31 29/34/30 11/14/12
f 13/16/14 31/36/32 30/35/31 12/15/13
f 14/17/15 32/37/33 31/36/32 13/16/14
f 15/18/16 33/38/34 32/37/33 14/17/15
f 16/19/17 34/39/35 33/38/34 15/18/16
f 17/20/18 35/40/36 34/39/35 16/19/17
f 18/21/19 36/41/37 35/40/36 17/20/18
f 1/22/2 19/42/21 36/41/37 18/21/19
f 20/23/20 38/43/38 37/44/39 19/24/21
f 21/25/22 39/45/40 38/43/38 20/23/20
f 22/26/23 40/46/41 39/45/40 21/25/22
f 23/27/24 41/47/42 40/46/41 22/26/23
f 24/28/25 42/48/43 41/47/42 23/27/24
f 25/29/26 43/49/44 42/48/43 24/28/25
f 26/30/27 44/50/45 43/49/44 25/29/26
f 27/31/28 45/51/46 44/50/45 26/30/27
f 28/32/29 46/52/47 45/53/46 27/33/28
f 29/34/30 47/54/48 46/52/47 28/32/29
f 30/35/31 48/55/49 47/54/48 29/34/30
f 31/36/32 49/56/50 48/55/49 30/35/31
f 32/37/33 50/57/51 49/56/50 31/36/32
f 33/38/34 51/58/52 50/57/51 32/37/33
f 34/39/35 52/59/53 51/58/52 33/38/34
f 35/40/36 53/60/54 52/59/53 34/39/35
f 36/41/37 54/61/55 53/60/54 35/40/36
f 19/42/21 37/62/39 54/61/55 36/41/37
f 37/44/39 38/43/38 56/63/56 55/64/57
f 38/43/38 39/45/40 57/65/58 56/63/56
f 39/45/40 40/46/41 58/66/59 57/65/58
f 40/46/41 41/47/42 59/67/60 58/66/59
f 41/47/42 42/48/43 60/68/61 59/67/60
f 42/48/43 43/49/44 61/69/62 60/68/61
f 43/49/44 44/50/45 62/70/63 61/69/62
f 44/50/45 45/51/46 63/71/64 62/70/63
f 45/53/46 46/52/47 64/72/65 63/73/64
f 46/52/47 47/54/48 65/74/66 64/72/65
f 47/54/48 48/55/49 66/75/67 65/74/66
f 48/55/49 49/56/50 67/76/68 66/75/67
f 49/56/50 50/57/51 68/77/69 67/76/68
f 50/57/51 51/58/52 69/78/70 68/77/69
f 51/58/52 52/59/53 70/79/71 69/78/70
f 52/59/53 53/60/54 71/80/72 70/79/71
f 53/60/54 54/61/55 72/81/73 71/80/72
f 54/61/55 37/62/39 55/82/57 72/81/73
f 55/64/57 56/63/56 74/83/74 73/84/75
f 56/63/56 57/65/58 75/85/76 74/83/74
f 57/65/58 58/66/59 76/86/77 75/85/76
f 58/66/59 59/67/60 77/87/78 76/86/77
f 59/67/60 60/68/61 78/88/79 77/87/78
f 60/68/61 61/69/62 79/89/80 78/88/79
f 61/69/62 62/70/63 80/90/81 79/89/80
f 62/70/63 63/71/64 81/91/82 80/90/81
f 63/73/64 64/72/65 82/92/83 81/93/82
f 64/72/65 65/74/66 83/94/84 82/92/83
f 65/74/66 66/75/67 84/95/85 83/94/84
f 66/75/67 67/76/68 85/96/86 84/95/85
f 67/76/68 68/77/69 86/97/87 85/96/86
f 68/77/69 69/78/70 87/98/88 86/97/87
f 69/78/70 70/79/71 88/99/89 87/98/88
f 70/79/71 71/80/72 89/100/90 88/99/89
f 71/80/72 72/81/73 90/101/91 89/100/90
f 72/81/73 55/82/57 73/102/75 90/101/91
f 73/84/75 74/83/74 92/103/92 91/104/93
f 74/83/74 75/85/76 93/105/94 92/103/92
f 75/85/76 76/86/77 94/106/95 93/105/94
f 76/86/77 77/87/78 95/107/96 94/106/95
f 77/87/78 78/88/79 96/108/97 95/107/96
f 78/88/79 79/89/80 97/109/98 96/108/97
f 79/89/80 80/90/81 98/110/99 97/109/98
f 80/90/81 81/91/82 99/111/100 98/110/99
f 81/93/82 82/92/83 100/112/101 99/113/100
f 82/92/83 83/94/84 101/114/102 100/112/101
f 83/94/84 84/95/85 102/115/103 101/114/102
f 84/95/85 85/96/86 103/116/104 102/115/103
f 85/96/86 86/97/87 104/117/105 103/116/104
f 86/97/87 87/98/88 105/118/106 104/117/105
f 87/98/88 88/99/89 106/119/107 105/118/106
f 88/99/89 89/100/90 107/120/108 106/119/107
f 89/100/90 90/101/91 108/121/109 107/120/108
f 90/101/91 73/102/75 91/122/93 108/121/109
f 91/123/93 92/124/92 110/125/110 109/126/111
f 92/124/92 93/127/94 111/128/112 110/125/110
f 93/127/94 94/129/95 112/130/113 111/128/112
f 94/129/95 95/131/96 113/132/114 112/130/113
f 95/131/96 96/133/97 114/134/115 113/132/114
f 96/133/97 97/135/98 115/136/116 114/134/115
f 97/135/98 98/137/99 116/138/117 115/136/116
f 98/137/99 99/139/100 117/140/118 116/138/117
f 99/141/100 100/142/101 118/143/119 117/144/118
f 100/142/101 101/145/102 119/146/120 118/143/119
f 101/145/102 102/147/103 120/148/121 119/146/120
f 102/147/103 103/149/104 121/150/122 120/148/121
f 103/149/104 104/151/105 122/152/123 121/150/122
f 104/151/105 105/153/106 123/154/124 122/152/123
f 105/153/106 106/155/107 124/156/125 123/154/124
f 106/155/107 107/157/108 125/158/126 124/156/125
f 107/157/108 108/159/109 126/160/127 125/158/126
f 108/159/109 91/161/93 109/162/111 126/160/127
f 110/125/110 128/163/128 127/164/129 109/126/111
f 111/128/112 129/165/130 128/163/128 110/125/110
f 112/130/113 130/166/131 129/165/130 111/128/112
f 113/132/114 131/167/132 130/166/131 112/130/113
f 114/134/115 132/168/133 131/167/132 113/132/114
f 115/136/116 133/169/134 132/168/133 114/134/115
f 116/138/117 134/170/135 133/169/134 115/136/116
f 117/140/118 135/171/136 134/170/135 116/138/117
f 118/143/119 136/172/137 135/173/136 117/144/118
f 119/146/120 137/174/138 136/172/137 118/143/119
f 120/148/121 138/175/139 137/174/138 119/146/120
f 121/150/122 139/176/140 138/175/139 120/148/121
f 122/152/123 140/177/141 139/176/140 121/150/122
f 123/154/124 141/178/142 140/177/141 122/152/123
f 124/156/125 142/179/143 141/178/142 123/154/124
f 125/158/126 143/180/144 142/179/143 124/156/125
f 126/160/127 144/181/145 143/180/144 125/158/126
f 109/162/111 127/182/129 144/181/145 126/160/127
f 128/163/128 146/183/146 145/184/147 127/164/129
f 129/165/130 147/185/148 146/183/146 128/163/128
f 130/166/131 148/186/149 147/185/148 129/165/130
f 131/167/132 149/187/150 148/186/149 130/166/131
f 132/168/133 150/188/151 149/187/150 131/167/132
f 133/169/134 151/189/152 150/188/151 132/168/133
f 134/170/135 152/190/153 151/189/152 133/169/134
f 135/171/136 153/191/154 152/190/153 134/170/135
f 136/172/137 154/192/155 153/193/154 135/173/136
f 137/174/138 155/194/156 154/192/155 136/172/137
f 138/175/139 156/195/157 155/194/156 137/174/138
f 139/176/140 157/196/158 156/195/157 138/175/139
f 140/177/141 158/197/159 157/196/158 139/176/140
f 141/178/142 159/198/160 158/197/159 140/177/141
f 142/179/143 160/199/161 159/198/160 141/178/142
f 143/180/144 161/200/162 160/199/161 142/179/143
f 144/181/145 162/201/163 161/200/162 143/180/144
f 127/182/129 145/202/147 162/201/163 144/181/145
f 146/183/146 164/203/164 163/204/165 145/184/147
f 147/185/148 165/205/166 164/203/164 146/183/146
f 148/186/149 166/206/167 165/205/166 147/185/148
f 149/187/150 167/207/168 166/206/167 148/186/149
f 150/188/151 168/208/169 167/207/168 149/187/150
f 151/189/152 169/209/170 168/208/169 150/188/151
f 152/190/153 170/210/171 169/209/170 151/189/152
f 153/191/154 171/211/172 170/210/171 152/190/153
f 154/192/155 172/212/173 171/213/172 153/193/154
f 155/194/156 173/214/174 172/212/173 154/192/155
f 156/195/157 174/215/175 173/214/174 155/194/156
f 157/196/158 175/216/176 174/215/175 156/195/157
f 158/197/159 176/217/177 175/216/176 157/196/158
f 159/198/160 177/218/178 176/217/177 158/197/159
f 160/199/161 178/219/179 177/218/178 159/198/160
f 161/200/162 179/220/180 178/219/179 160/199/161
f 162/201/163 180/221/181 179/220/180 161/200/162
f 145/202/147 163/222/165 180/221/181 162/201/163
f 164/203/164 182/223/182 163/204/165
f 165/205/166 182/223/182 164/203/164
f 166/206/167 182/223/182 165/205/166
f 167/207/168 182/223/182 166/206/167
f 168/208/169 182/223/182 167/207/168
f 169/209/170 182/223/182 168/208/169
f 170/210/171 182/223/182 169/209/170
f 171/211/172 182/223/182 170/210/171
f 172/212/173 182/224/182 171/213/172
f 173/214/174 182/224/182 172/212/173
f 174/215/175 182/224/182 173/214/174
f 175/216/176 182/224/182 174/215/175
f 176/217/177 182/224/182 175/216/176
f 177/218/178 182/224/182 176/217/177
f 178/219/179 182/224/182 177/218/178
f 179/220/180 182/224/182 178/219/179
f 180/221/181 182/224/182 179/220/180
f 163/222/165 182/224/182 180/221/181
